<svg xmlns="http://www.w3.org/2000/svg" xmlns:v="https://svgstorm.com"
viewBox = "0 0 512 512"
width="512"
height="512">
<g fill="None" fill-opacity="0.0" stroke="#3E3668" stroke-opacity="1.00" stroke-width="0.3"><path d="
M 0.00 113.00 
C 2.44 112.43 1.83 114.84 1.00 116.00
C 3.28 115.27 3.64 113.58 6.00 116.00
C 6.42 110.85 9.81 112.70 8.00 117.00
C 9.49 115.78 10.37 112.63 13.00 113.00
C 13.35 117.27 25.25 112.50 21.00 110.00
C 26.40 111.83 29.77 105.72 32.00 111.00
C 36.72 110.50 36.77 108.43 34.00 106.00
C 39.26 109.40 46.35 108.77 47.00 112.00
C 49.61 106.47 61.88 105.51 51.00 104.00
C 54.12 104.39 58.99 104.17 59.00 100.00
C 60.12 104.28 62.22 101.38 62.00 98.00
C 64.11 101.56 68.09 102.05 64.00 98.00
C 66.66 97.06 70.01 103.59 68.00 98.00
C 71.84 99.63 78.05 94.08 76.00 90.00
C 79.64 90.90 84.93 85.00 88.10 81.10 C 91.26 77.19 95.17 77.32 98.00 71.00
C 98.29 66.97 94.86 66.19 93.00 64.00
C 97.17 64.26 96.32 63.80 95.00 61.00
C 98.93 58.45 103.45 55.58 104.00 51.00
C 109.37 53.86 104.53 49.33 109.00 50.00
C 104.53 46.62 111.78 45.16 108.00 41.00
C 105.47 41.87 106.99 43.98 106.00 46.00
C 102.35 46.64 107.05 41.84 104.00 41.00
C 103.77 45.34 98.65 41.17 98.00 39.00
C 95.91 42.80 91.85 36.61 88.00 38.00
C 88.65 34.61 87.03 32.50 86.00 29.00
C 88.65 29.24 89.73 26.08 90.00 24.00
C 91.31 28.82 93.31 23.12 97.00 24.00
C 94.43 21.24 97.18 18.25 92.00 20.00
C 95.88 16.96 87.66 12.52 85.00 16.00
C 83.36 12.53 81.85 14.88 78.00 13.00
C 77.13 15.91 75.94 19.14 72.00 18.00
C 75.47 19.44 78.07 19.10 75.00 23.00
C 71.97 21.63 70.26 18.89 69.00 23.00
C 67.95 20.72 67.12 20.08 68.00 17.00
C 64.47 21.04 64.16 15.28 59.00 16.00
C 58.81 13.59 56.80 9.43 55.00 13.00
C 55.50 8.45 49.93 7.89 49.00 5.00
C 50.40 5.59 53.28 6.53 53.00 4.00
C 50.15 3.74 48.83 1.29 46.00 0.00
L 0.00 0.00
L 0.00 113.00 Z"/>
</g>
<g fill="None" fill-opacity="0.0" stroke="#473059" stroke-opacity="1.00" stroke-width="0.3"><path d="
M 98.00 71.00 
C 100.41 68.33 108.23 67.97 104.00 64.00
C 105.63 60.51 107.06 64.86 109.00 66.00
C 108.88 62.20 113.27 62.39 110.00 59.00
C 113.07 59.24 114.88 61.75 118.00 62.00
C 118.22 60.69 119.75 59.02 120.00 57.00
C 123.71 61.21 126.99 61.52 130.00 57.00
C 134.17 60.53 138.08 54.87 143.00 59.00
C 143.57 56.74 143.81 56.46 142.00 55.00
C 145.14 53.51 145.64 57.73 148.00 56.00
C 146.18 52.84 152.07 52.73 147.00 51.00
C 150.48 49.40 151.44 47.93 151.00 52.00
C 151.91 46.44 156.18 42.07 159.00 37.00
C 167.01 39.60 168.23 26.05 178.00 28.00
C 172.17 25.60 179.25 23.45 181.00 27.00
C 178.99 19.57 189.21 21.27 194.00 21.00
C 189.51 17.60 192.99 15.62 198.00 17.00
C 195.84 14.12 202.33 13.65 201.00 10.00
C 205.02 12.39 210.38 1.99 215.00 0.00
L 46.00 0.00
C 48.83 1.29 50.15 3.74 53.00 4.00
C 53.28 6.53 50.40 5.59 49.00 5.00
C 49.93 7.89 55.50 8.45 55.00 13.00
C 56.80 9.43 58.81 13.59 59.00 16.00
C 64.16 15.28 64.47 21.04 68.00 17.00
C 67.12 20.08 67.95 20.72 69.00 23.00
C 70.26 18.89 71.97 21.63 75.00 23.00
C 78.07 19.10 75.47 19.44 72.00 18.00
C 75.94 19.14 77.13 15.91 78.00 13.00
C 81.85 14.88 83.36 12.53 85.00 16.00
C 87.66 12.52 95.88 16.96 92.00 20.00
C 97.18 18.25 94.43 21.24 97.00 24.00
C 93.31 23.12 91.31 28.82 90.00 24.00
C 89.73 26.08 88.65 29.24 86.00 29.00
C 87.03 32.50 88.65 34.61 88.00 38.00
C 91.85 36.61 95.91 42.80 98.00 39.00
C 98.65 41.17 103.77 45.34 104.00 41.00
C 107.05 41.84 102.35 46.64 106.00 46.00
C 106.99 43.98 105.47 41.87 108.00 41.00
C 111.78 45.16 104.53 46.62 109.00 50.00
C 104.53 49.33 109.37 53.86 104.00 51.00
C 103.45 55.58 98.93 58.45 95.00 61.00
C 96.32 63.80 97.17 64.26 93.00 64.00
C 94.86 66.19 98.29 66.97 98.00 71.00 Z"/>
</g>
<g fill="None" fill-opacity="0.0" stroke="#35243C" stroke-opacity="1.00" stroke-width="0.3"><path d="
M 143.00 59.00 
C 142.80 59.80 139.51 59.50 142.00 62.00
C 138.03 63.79 137.76 63.31 134.00 63.00
C 134.15 66.06 132.41 67.45 131.00 70.00
C 129.28 67.66 126.85 69.32 123.00 68.00
C 126.54 71.53 122.41 77.17 118.00 75.00
C 115.25 82.42 110.35 90.18 104.00 93.00
C 106.00 96.30 105.53 97.66 102.00 99.00
C 106.35 99.24 111.35 97.66 115.02 95.02 C 118.70 92.39 119.69 92.76 122.00 89.00
C 128.12 90.73 121.87 95.69 130.00 94.00
C 123.12 89.46 133.79 91.79 134.00 87.00
C 135.89 89.03 137.61 88.84 140.00 88.00
C 140.19 93.83 140.60 86.57 144.00 88.00
C 144.79 90.12 144.85 92.30 145.00 95.00
C 138.22 93.22 134.91 104.75 128.00 100.00
C 124.58 105.11 118.53 105.24 116.00 112.00
C 114.88 115.16 117.59 114.90 115.00 117.00
C 117.16 119.02 119.66 115.15 119.00 113.00
C 121.03 117.13 124.72 111.36 128.00 114.00
C 124.68 111.81 130.77 104.44 133.00 110.00
C 131.47 102.76 137.67 109.23 137.00 103.00
C 139.19 105.15 139.97 105.27 142.00 107.00
C 141.64 103.71 145.14 102.12 147.00 100.00
C 150.17 102.58 151.30 102.92 153.00 105.00
C 152.25 101.57 155.03 100.56 157.00 103.00
C 158.17 100.59 156.10 101.95 160.00 103.00
C 161.02 99.90 163.41 96.27 167.00 96.00
C 166.94 97.88 162.94 100.05 166.00 102.00
C 166.19 98.67 170.19 97.04 172.00 95.00
C 174.59 98.26 180.96 94.37 177.00 91.00
C 180.05 89.49 180.60 92.96 184.00 91.00
C 180.52 85.31 195.10 85.72 190.00 82.00
C 192.65 81.22 194.73 83.94 197.00 82.00
C 199.30 81.85 198.32 84.52 200.00 86.00
C 199.64 81.05 202.84 80.63 204.00 85.00
C 205.20 82.91 204.18 79.55 206.00 78.00
C 207.50 79.51 204.80 82.33 208.00 83.00
C 207.61 79.78 211.52 78.30 212.00 75.00
C 214.76 77.49 219.04 73.52 218.00 69.00
C 220.37 69.03 221.72 71.50 224.00 72.00
C 223.10 65.81 228.68 68.48 234.08 66.07 C 239.48 63.65 241.45 52.75 246.00 57.00
C 246.46 54.27 246.14 51.16 250.00 53.00
C 247.31 45.78 255.82 47.37 259.00 47.00
C 260.07 41.25 274.00 36.50 267.00 33.00
C 273.28 34.22 268.69 30.85 273.00 31.00
C 269.45 25.87 276.24 26.08 277.25 22.81 C 278.26 19.53 284.70 15.72 282.00 14.00
C 286.86 12.71 290.53 10.30 286.00 8.00
C 289.47 7.25 291.70 3.74 291.00 0.00
L 215.00 0.00
C 210.38 1.99 205.02 12.39 201.00 10.00
C 202.33 13.65 195.84 14.12 198.00 17.00
C 192.99 15.62 189.51 17.60 194.00 21.00
C 189.21 21.27 178.99 19.57 181.00 27.00
C 179.25 23.45 172.17 25.60 178.00 28.00
C 168.23 26.05 167.01 39.60 159.00 37.00
C 156.18 42.07 151.91 46.44 151.00 52.00
C 151.44 47.93 150.48 49.40 147.00 51.00
C 152.07 52.73 146.18 52.84 148.00 56.00
C 145.64 57.73 145.14 53.51 142.00 55.00
C 143.81 56.46 143.57 56.74 143.00 59.00 Z"/>
</g>
<g fill="None" fill-opacity="0.0" stroke="#251B29" stroke-opacity="1.00" stroke-width="0.3"><path d="
M 157.00 103.00 
C 155.86 105.35 153.95 109.72 159.00 108.00
C 157.59 110.18 155.62 112.15 156.00 115.00
C 149.93 114.66 150.88 122.20 143.00 121.00
C 144.51 124.80 139.34 124.33 140.00 129.00
C 144.64 127.47 144.78 128.83 145.00 133.00
C 141.73 133.97 136.40 134.62 141.00 138.00
C 137.82 137.60 135.09 142.18 133.00 138.00
C 131.71 140.50 133.25 141.38 135.00 143.00
C 134.21 146.10 131.14 147.46 128.00 147.00
C 133.32 149.68 122.16 150.47 128.00 155.00
C 128.63 151.25 131.43 148.88 136.00 147.00
C 133.20 151.05 138.18 148.91 140.00 150.00
C 140.18 148.39 138.60 147.48 140.00 146.00
C 142.37 146.97 143.37 149.58 145.00 151.00
C 145.51 148.32 148.20 149.20 148.00 146.00
C 156.82 146.00 159.25 136.88 167.00 133.00
C 164.07 127.49 169.26 132.72 168.00 127.00
C 169.35 129.86 175.02 129.28 174.00 125.00
C 176.32 129.33 180.28 125.18 181.00 121.00
C 182.46 126.42 184.95 120.12 182.00 118.00
C 185.11 115.54 186.41 120.98 189.00 121.00
C 186.99 119.20 189.10 116.71 191.00 116.00
C 191.01 120.58 193.43 118.34 192.00 115.00
C 195.04 119.50 197.79 115.63 202.00 118.00
C 203.59 116.04 200.77 113.45 203.00 112.00
C 207.44 113.23 203.63 113.80 204.00 117.00
C 207.04 115.95 209.03 112.74 207.00 118.00
C 209.90 113.82 219.12 116.95 221.00 112.00
C 223.00 115.58 224.54 112.53 223.00 110.00
C 225.30 108.41 232.45 111.33 231.00 107.00
C 233.22 107.68 233.55 108.68 236.00 109.00
C 237.86 104.93 246.37 106.27 246.00 99.00
C 247.89 105.50 255.75 92.31 262.00 98.00
C 258.71 96.20 262.03 95.43 264.00 97.00
C 263.49 91.02 268.29 92.20 272.00 92.00
C 267.89 89.26 270.16 89.07 274.00 90.00
C 268.93 85.95 287.01 83.09 280.00 80.00
C 285.71 81.30 287.88 71.12 294.00 75.00
C 294.02 72.72 287.76 72.76 292.00 72.00
C 292.92 71.25 296.64 72.38 296.00 69.00
C 297.66 72.11 300.75 69.52 304.00 70.00
C 303.95 66.74 299.04 69.19 299.00 65.00
C 301.41 67.72 301.78 63.01 304.00 65.00
C 302.82 60.31 310.45 60.00 305.00 57.00
C 307.06 55.00 308.52 53.12 312.00 54.00
C 304.91 51.72 316.56 50.94 313.00 47.00
C 317.93 46.78 323.56 39.50 320.00 37.00
C 326.82 37.68 327.99 29.75 323.00 27.00
C 325.34 26.88 326.68 30.31 329.00 28.00
C 323.39 26.49 330.78 25.09 327.00 23.00
C 331.69 22.15 330.30 21.28 327.00 20.00
C 330.34 20.11 334.84 20.16 330.00 18.00
C 333.19 16.11 337.86 11.27 336.00 7.00
C 340.94 7.18 338.44 2.84 341.00 0.00
L 291.00 0.00
C 291.70 3.74 289.47 7.25 286.00 8.00
C 290.53 10.30 286.86 12.71 282.00 14.00
C 284.70 15.72 278.26 19.53 277.25 22.81 C 276.24 26.08 269.45 25.87 273.00 31.00
C 268.69 30.85 273.28 34.22 267.00 33.00
C 274.00 36.50 260.07 41.25 259.00 47.00
C 255.82 47.37 247.31 45.78 250.00 53.00
C 246.14 51.16 246.46 54.27 246.00 57.00
C 241.45 52.75 239.48 63.65 234.08 66.07 C 228.68 68.48 223.10 65.81 224.00 72.00
C 221.72 71.50 220.37 69.03 218.00 69.00
C 219.04 73.52 214.76 77.49 212.00 75.00
C 211.52 78.30 207.61 79.78 208.00 83.00
C 204.80 82.33 207.50 79.51 206.00 78.00
C 204.18 79.55 205.20 82.91 204.00 85.00
C 202.84 80.63 199.64 81.05 200.00 86.00
C 198.32 84.52 199.30 81.85 197.00 82.00
C 194.73 83.94 192.65 81.22 190.00 82.00
C 195.10 85.72 180.52 85.31 184.00 91.00
C 180.60 92.96 180.05 89.49 177.00 91.00
C 180.96 94.37 174.59 98.26 172.00 95.00
C 170.19 97.04 166.19 98.67 166.00 102.00
C 162.94 100.05 166.94 97.88 167.00 96.00
C 163.41 96.27 161.02 99.90 160.00 103.00
C 156.10 101.95 158.17 100.59 157.00 103.00 Z"/>
</g>
<g fill="None" fill-opacity="0.0" stroke="#18151E" stroke-opacity="1.00" stroke-width="0.3"><path d="
M 140.00 150.00 
C 139.94 150.53 141.18 152.75 140.00 154.00
C 137.06 153.94 136.13 149.91 133.00 152.00
C 135.22 153.73 136.74 155.34 136.00 159.00
C 133.78 160.15 132.05 158.97 130.00 160.00
C 133.52 161.10 132.55 163.44 129.00 162.00
C 128.77 164.51 125.99 166.05 127.00 169.00
C 123.43 169.73 125.33 165.67 121.00 167.00
C 120.30 171.84 115.49 170.30 112.00 171.00
C 110.55 175.50 115.45 171.74 115.00 175.00
C 112.58 175.52 108.82 172.73 109.00 177.00
C 106.40 174.52 104.70 176.11 102.00 177.00
C 104.19 179.79 100.55 181.54 102.00 184.00
C 93.36 184.82 90.98 189.25 85.00 191.00
C 88.00 193.38 84.66 193.63 86.00 196.00
C 84.43 192.42 77.15 194.52 79.00 199.00
C 76.03 197.01 72.93 199.61 72.00 203.00
C 70.50 200.05 66.04 199.94 70.00 203.00
C 65.99 203.93 65.76 208.06 61.00 207.00
C 67.26 210.63 58.51 208.55 56.30 210.35 C 54.09 212.15 50.37 213.47 45.00 214.00
C 50.48 217.06 44.01 217.00 40.25 217.40 C 36.49 217.80 32.83 220.86 28.00 220.00
C 29.02 224.78 22.36 220.15 25.00 225.00
C 22.14 223.54 16.97 222.74 17.00 227.00
C 12.94 224.68 8.23 230.01 0.00 229.00
L 0.00 265.00
C 3.39 263.39 10.44 267.14 10.00 261.00
C 12.78 264.11 13.98 260.53 18.00 263.00
C 16.18 260.11 19.58 260.12 19.00 257.00
C 22.31 257.28 21.31 260.45 23.00 262.00
C 24.82 256.04 36.72 266.77 32.00 257.00
C 34.43 257.51 38.61 260.44 39.00 256.00
C 39.37 259.64 42.64 256.84 43.00 260.00
C 44.96 258.97 46.79 256.31 49.00 258.00
C 46.76 254.65 52.75 253.88 54.00 256.00
C 53.54 252.86 57.41 251.42 56.00 249.00
C 60.45 249.99 68.66 250.94 68.00 244.00
C 71.45 248.37 83.33 245.39 81.00 238.00
C 83.77 236.43 81.36 243.60 82.93 240.86 C 84.50 238.12 86.69 240.28 89.00 241.00
C 89.57 238.04 84.07 239.60 85.00 236.00
C 89.13 238.90 93.10 239.96 98.00 240.00
C 93.36 237.46 99.65 235.75 102.00 238.00
C 102.82 234.61 106.01 236.36 105.00 232.00
C 110.18 231.74 110.01 228.52 105.00 231.00
C 110.00 228.50 111.86 220.99 117.00 223.00
C 117.69 220.38 119.66 218.85 118.00 216.00
C 120.88 218.07 122.94 215.58 123.00 213.00
C 126.39 218.38 127.48 210.09 133.00 213.00
C 133.30 208.88 127.40 212.37 128.00 208.00
C 130.12 206.39 130.26 209.81 133.00 208.00
C 132.02 205.30 135.13 199.80 139.00 201.00
C 135.15 198.98 141.60 195.74 145.08 194.08 C 148.56 192.42 152.49 187.34 157.00 189.00
C 154.76 186.59 159.14 185.52 160.00 184.00
C 164.26 186.33 163.96 185.10 168.00 184.00
C 168.00 179.31 167.62 173.59 168.00 169.00 C 168.38 164.41 166.99 158.22 168.00 154.00 C 169.01 149.78 165.68 142.32 168.00 139.00
C 170.83 134.95 181.56 139.09 187.00 138.00 C 192.44 136.91 201.73 138.47 208.00 138.00 C 214.27 137.53 222.38 138.18 229.00 138.00 C 235.62 137.82 243.29 138.00 250.00 138.00
C 247.51 136.35 253.05 132.08 248.00 132.00
C 251.40 129.95 251.99 133.45 253.00 136.00
C 253.58 131.94 263.05 128.89 264.00 133.00
C 267.14 133.46 268.58 129.59 271.00 131.00
C 268.45 126.40 274.46 128.71 274.00 132.00
C 276.20 129.23 277.67 129.39 281.00 129.00
C 276.37 126.02 288.37 123.57 287.00 120.00
C 289.61 117.69 290.58 122.19 293.00 122.00
C 289.80 115.85 297.66 121.47 299.00 117.00
C 298.19 119.57 297.54 121.43 301.00 120.00
C 301.10 115.74 304.98 113.49 308.00 116.00
C 305.86 109.82 314.94 110.33 311.00 106.00
C 314.76 104.93 317.75 102.32 321.00 105.00
C 319.19 99.37 325.62 104.75 325.00 99.00
C 329.26 102.16 330.76 95.15 335.00 96.00
C 330.71 91.83 337.60 93.55 337.00 89.00
C 339.69 92.82 338.74 88.72 342.00 88.00
C 340.70 85.78 340.44 84.61 340.00 82.00
C 344.26 86.11 348.22 77.85 347.00 74.00
C 349.73 71.75 350.54 72.91 353.00 74.00
C 352.51 71.30 352.76 69.39 351.00 67.00
C 355.15 69.92 356.18 69.09 361.00 69.00
C 365.65 35.73 390.16 8.38 424.00 3.00
C 424.53 1.72 423.03 1.14 423.00 0.00
L 341.00 0.00
C 338.44 2.84 340.94 7.18 336.00 7.00
C 337.86 11.27 333.19 16.11 330.00 18.00
C 334.84 20.16 330.34 20.11 327.00 20.00
C 330.30 21.28 331.69 22.15 327.00 23.00
C 330.78 25.09 323.39 26.49 329.00 28.00
C 326.68 30.31 325.34 26.88 323.00 27.00
C 327.99 29.75 326.82 37.68 320.00 37.00
C 323.56 39.50 317.93 46.78 313.00 47.00
C 316.56 50.94 304.91 51.72 312.00 54.00
C 308.52 53.12 307.06 55.00 305.00 57.00
C 310.45 60.00 302.82 60.31 304.00 65.00
C 301.78 63.01 301.41 67.72 299.00 65.00
C 299.04 69.19 303.95 66.74 304.00 70.00
C 300.75 69.52 297.66 72.11 296.00 69.00
C 296.64 72.38 292.92 71.25 292.00 72.00
C 287.76 72.76 294.02 72.72 294.00 75.00
C 287.88 71.12 285.71 81.30 280.00 80.00
C 287.01 83.09 268.93 85.95 274.00 90.00
C 270.16 89.07 267.89 89.26 272.00 92.00
C 268.29 92.20 263.49 91.02 264.00 97.00
C 262.03 95.43 258.71 96.20 262.00 98.00
C 255.75 92.31 247.89 105.50 246.00 99.00
C 246.37 106.27 237.86 104.93 236.00 109.00
C 233.55 108.68 233.22 107.68 231.00 107.00
C 232.45 111.33 225.30 108.41 223.00 110.00
C 224.54 112.53 223.00 115.58 221.00 112.00
C 219.12 116.95 209.90 113.82 207.00 118.00
C 209.03 112.74 207.04 115.95 204.00 117.00
C 203.63 113.80 207.44 113.23 203.00 112.00
C 200.77 113.45 203.59 116.04 202.00 118.00
C 197.79 115.63 195.04 119.50 192.00 115.00
C 193.43 118.34 191.01 120.58 191.00 116.00
C 189.10 116.71 186.99 119.20 189.00 121.00
C 186.41 120.98 185.11 115.54 182.00 118.00
C 184.95 120.12 182.46 126.42 181.00 121.00
C 180.28 125.18 176.32 129.33 174.00 125.00
C 175.02 129.28 169.35 129.86 168.00 127.00
C 169.26 132.72 164.07 127.49 167.00 133.00
C 159.25 136.88 156.82 146.00 148.00 146.00
C 148.20 149.20 145.51 148.32 145.00 151.00
C 143.37 149.58 142.37 146.97 140.00 146.00
C 138.60 147.48 140.18 148.39 140.00 150.00 Z"/>
</g>
<g fill="None" fill-opacity="0.0" stroke="#101012" stroke-opacity="1.00" stroke-width="0.3"><path d="
M 424.00 3.00 
C 465.87 -3.66 507.17 27.30 512.00 69.00
L 512.00 0.00
L 423.00 0.00
C 423.03 1.14 424.53 1.72 424.00 3.00 Z"/>
</g>
<g fill="None" fill-opacity="0.0" stroke="#EC1B23" stroke-opacity="1.00" stroke-width="0.3"><path d="
M 424.00 3.00 
C 390.16 8.38 365.65 35.73 361.00 69.00
C 355.17 110.77 386.57 148.63 427.67 153.33 C 468.77 158.03 507.99 126.89 512.00 86.00
L 512.00 69.00
C 507.17 27.30 465.87 -3.66 424.00 3.00 Z"/>
</g>
<g fill="None" fill-opacity="0.0" stroke="#2D2A4D" stroke-opacity="1.00" stroke-width="0.3"><path d="
M 98.00 71.00 
C 95.17 77.32 91.26 77.19 88.10 81.10 C 84.93 85.00 79.64 90.90 76.00 90.00
C 78.05 94.08 71.84 99.63 68.00 98.00
C 70.01 103.59 66.66 97.06 64.00 98.00
C 68.09 102.05 64.11 101.56 62.00 98.00
C 62.22 101.38 60.12 104.28 59.00 100.00
C 58.99 104.17 54.12 104.39 51.00 104.00
C 61.88 105.51 49.61 106.47 47.00 112.00
C 46.35 108.77 39.26 109.40 34.00 106.00
C 36.77 108.43 36.72 110.50 32.00 111.00
C 29.77 105.72 26.40 111.83 21.00 110.00
C 25.25 112.50 13.35 117.27 13.00 113.00
C 10.37 112.63 9.49 115.78 8.00 117.00
C 9.81 112.70 6.42 110.85 6.00 116.00
C 3.64 113.58 3.28 115.27 1.00 116.00
C 1.83 114.84 2.44 112.43 0.00 113.00
L 0.00 165.00
C 3.44 165.30 6.52 159.61 5.00 166.00
C 9.87 159.24 16.53 163.13 23.00 159.00
C 20.62 164.53 26.57 158.47 22.00 157.00
C 29.40 159.04 27.96 156.58 33.25 154.20 C 38.54 151.82 41.46 149.95 46.67 147.67 C 51.89 145.39 56.20 141.67 62.00 141.00
C 56.33 138.06 66.89 138.40 64.00 134.00
C 66.88 133.77 67.79 138.11 71.00 137.00
C 68.56 132.69 73.92 131.55 77.00 133.00
C 75.85 129.58 81.35 129.72 80.00 126.00
C 85.18 128.58 87.45 124.41 91.00 129.00
C 91.35 123.55 103.99 125.85 98.00 120.00
C 100.74 120.97 105.36 124.80 102.00 119.00
C 106.03 121.06 107.26 119.16 107.00 115.00
C 110.85 119.19 112.97 114.35 113.00 111.00
C 114.53 112.76 113.97 114.61 116.00 112.00
C 118.53 105.24 124.58 105.11 128.00 100.00
C 134.91 104.75 138.22 93.22 145.00 95.00
C 144.85 92.30 144.79 90.12 144.00 88.00
C 140.60 86.57 140.19 93.83 140.00 88.00
C 137.61 88.84 135.89 89.03 134.00 87.00
C 133.79 91.79 123.12 89.46 130.00 94.00
C 121.87 95.69 128.12 90.73 122.00 89.00
C 119.69 92.76 118.70 92.39 115.02 95.02 C 111.35 97.66 106.35 99.24 102.00 99.00
C 105.53 97.66 106.00 96.30 104.00 93.00
C 110.35 90.18 115.25 82.42 118.00 75.00
C 122.41 77.17 126.54 71.53 123.00 68.00
C 126.85 69.32 129.28 67.66 131.00 70.00
C 132.41 67.45 134.15 66.06 134.00 63.00
C 137.76 63.31 138.03 63.79 142.00 62.00
C 139.51 59.50 142.80 59.80 143.00 59.00
C 138.08 54.87 134.17 60.53 130.00 57.00
C 126.99 61.52 123.71 61.21 120.00 57.00
C 119.75 59.02 118.22 60.69 118.00 62.00
C 114.88 61.75 113.07 59.24 110.00 59.00
C 113.27 62.39 108.88 62.20 109.00 66.00
C 107.06 64.86 105.63 60.51 104.00 64.00
C 108.23 67.97 100.41 68.33 98.00 71.00 Z"/>
</g>
<g fill="None" fill-opacity="0.0" stroke="#111013" stroke-opacity="1.00" stroke-width="0.3"><path d="
M 250.00 138.00 
C 259.32 138.00 269.46 137.78 278.00 139.00
C 281.24 138.91 283.94 139.39 287.00 140.00
C 319.65 146.53 349.02 173.61 352.00 208.00
C 339.12 209.58 326.95 205.89 314.00 208.00 C 301.06 210.11 296.97 201.18 292.00 191.00
C 288.67 185.62 285.12 176.78 279.00 174.00
C 277.49 173.32 274.72 173.16 273.00 173.00
C 261.25 171.94 246.70 171.55 235.00 173.00
C 232.16 173.70 229.55 174.30 227.00 176.00
C 221.34 179.77 219.48 186.95 215.70 191.70 C 211.91 196.44 210.07 206.47 204.00 208.00
C 192.71 210.84 179.46 205.87 168.00 208.00
C 168.00 200.00 168.00 192.00 168.00 184.00
C 163.96 185.10 164.26 186.33 160.00 184.00
C 159.14 185.52 154.76 186.59 157.00 189.00
C 152.49 187.34 148.56 192.42 145.08 194.08 C 141.60 195.74 135.15 198.98 139.00 201.00
C 135.13 199.80 132.02 205.30 133.00 208.00
C 130.26 209.81 130.12 206.39 128.00 208.00
C 127.40 212.37 133.30 208.88 133.00 213.00
C 127.48 210.09 126.39 218.38 123.00 213.00
C 122.94 215.58 120.88 218.07 118.00 216.00
C 119.66 218.85 117.69 220.38 117.00 223.00
C 111.86 220.99 110.00 228.50 105.00 231.00
C 110.01 228.52 110.18 231.74 105.00 232.00
C 106.01 236.36 102.82 234.61 102.00 238.00
C 99.65 235.75 93.36 237.46 98.00 240.00
C 93.10 239.96 89.13 238.90 85.00 236.00
C 84.07 239.60 89.57 238.04 89.00 241.00
C 86.69 240.28 84.50 238.12 82.93 240.86 C 81.36 243.60 83.77 236.43 81.00 238.00
C 83.33 245.39 71.45 248.37 68.00 244.00
C 68.66 250.94 60.45 249.99 56.00 249.00
C 57.41 251.42 53.54 252.86 54.00 256.00
C 52.75 253.88 46.76 254.65 49.00 258.00
C 46.79 256.31 44.96 258.97 43.00 260.00
C 42.64 256.84 39.37 259.64 39.00 256.00
C 38.61 260.44 34.43 257.51 32.00 257.00
C 36.72 266.77 24.82 256.04 23.00 262.00
C 21.31 260.45 22.31 257.28 19.00 257.00
C 19.58 260.12 16.18 260.11 18.00 263.00
C 13.98 260.53 12.78 264.11 10.00 261.00
C 10.44 267.14 3.39 263.39 0.00 265.00
L 0.00 512.00
L 291.00 512.00
C 292.26 509.17 290.24 506.74 293.00 505.00
C 290.68 503.11 290.14 500.62 288.00 500.00
C 289.93 496.82 290.93 502.18 293.00 500.00
C 290.63 497.16 289.44 493.56 294.00 493.00
C 293.08 489.86 293.95 489.54 295.00 487.00
C 297.33 492.51 297.85 485.52 294.00 485.00
C 298.25 485.96 303.06 481.64 299.00 479.00
C 299.25 482.96 295.03 483.59 292.00 481.00
C 295.45 478.47 290.77 477.86 293.00 475.00
C 294.77 476.68 296.91 476.98 299.00 478.00
C 297.20 475.73 294.57 473.64 300.00 473.00
C 296.53 468.90 297.22 474.04 293.00 473.00
C 293.81 470.85 290.88 465.33 287.00 466.00
C 290.55 462.86 290.23 463.84 293.00 467.00
C 293.98 461.96 292.37 463.80 290.00 459.00
C 290.80 456.61 294.43 454.43 290.00 452.00
C 291.96 451.18 293.95 451.64 296.00 450.00
C 291.19 446.57 295.19 445.79 299.00 445.00
C 296.79 442.96 291.58 441.94 298.00 442.00
C 292.65 440.09 299.89 440.47 296.00 437.00
C 299.11 435.72 299.22 434.15 300.00 432.00
C 302.46 433.38 301.76 435.91 300.00 438.00
C 307.79 438.58 309.41 428.23 304.00 428.00
C 306.36 426.82 307.18 426.41 305.00 424.00
C 307.09 421.58 307.40 424.45 310.00 421.00
C 308.39 419.40 307.03 416.25 310.00 414.00
C 306.26 415.45 306.57 408.98 309.00 413.00
C 308.48 410.17 309.12 406.05 313.00 407.00
C 309.91 403.73 307.77 398.27 312.00 395.00
C 314.84 394.75 313.33 399.56 316.00 401.00
C 317.25 398.04 314.55 396.39 314.00 393.00
C 317.50 395.73 315.66 395.24 319.00 392.00
C 318.88 393.84 317.65 395.88 319.00 397.00
C 320.72 395.50 319.53 391.62 322.00 395.00
C 321.81 391.91 324.42 389.93 325.00 387.00
C 322.26 387.47 320.44 385.28 319.00 388.00
C 317.02 381.67 323.95 386.74 323.00 380.00
C 315.68 385.05 327.30 373.24 320.00 373.00
C 322.47 373.68 324.18 372.22 326.00 371.00
C 325.04 367.11 326.03 362.22 328.00 359.00
C 326.12 358.32 324.68 356.98 323.00 356.00
C 325.18 353.24 323.64 350.40 329.00 351.00
C 324.63 348.75 330.41 345.71 327.00 344.00
C 330.76 343.34 330.79 345.40 332.00 348.00
C 332.73 343.35 334.27 338.39 332.00 334.00
C 336.36 336.83 335.41 328.43 340.00 329.00
C 335.83 327.13 341.50 325.76 339.00 323.00
C 342.49 322.72 346.99 320.30 347.00 316.00
C 350.23 319.69 349.74 311.48 354.00 317.00
C 353.50 313.31 357.75 309.35 352.00 309.00
C 356.84 306.84 354.13 301.06 360.00 302.00
C 352.54 300.43 362.07 298.21 359.00 293.00
C 362.66 294.11 361.74 289.58 365.74 288.74 C 369.75 287.91 373.31 286.30 372.00 283.00
C 374.09 284.04 375.23 286.78 378.00 286.00
C 376.99 282.34 379.36 283.02 383.00 284.00
C 382.07 278.36 391.26 276.66 395.00 276.00
C 392.80 269.37 401.60 266.40 405.00 262.00
C 407.64 263.39 408.25 264.17 408.00 260.00
C 409.40 263.18 410.23 262.82 410.00 259.00
C 413.61 259.03 418.75 260.99 418.00 256.00
C 420.75 255.52 422.10 261.45 422.00 256.00
C 425.69 261.93 434.17 256.82 435.00 251.00
C 437.78 253.62 442.07 251.56 443.00 249.00
C 443.98 254.27 450.29 247.73 452.00 253.00
C 454.20 250.61 460.94 246.41 465.00 249.00
C 463.22 245.75 469.05 242.72 472.00 243.00
C 472.01 247.58 482.53 247.67 485.00 243.00
C 489.17 243.85 492.95 247.69 493.00 243.00
C 495.94 243.84 498.14 243.68 500.00 247.00
C 505.20 243.15 507.75 244.59 510.00 248.00
C 509.89 246.30 509.62 243.16 512.00 245.00
L 512.00 86.00
C 507.99 126.89 468.77 158.03 427.67 153.33 C 386.57 148.63 355.17 110.77 361.00 69.00
C 356.18 69.09 355.15 69.92 351.00 67.00
C 352.76 69.39 352.51 71.30 353.00 74.00
C 350.54 72.91 349.73 71.75 347.00 74.00
C 348.22 77.85 344.26 86.11 340.00 82.00
C 340.44 84.61 340.70 85.78 342.00 88.00
C 338.74 88.72 339.69 92.82 337.00 89.00
C 337.60 93.55 330.71 91.83 335.00 96.00
C 330.76 95.15 329.26 102.16 325.00 99.00
C 325.62 104.75 319.19 99.37 321.00 105.00
C 317.75 102.32 314.76 104.93 311.00 106.00
C 314.94 110.33 305.86 109.82 308.00 116.00
C 304.98 113.49 301.10 115.74 301.00 120.00
C 297.54 121.43 298.19 119.57 299.00 117.00
C 297.66 121.47 289.80 115.85 293.00 122.00
C 290.58 122.19 289.61 117.69 287.00 120.00
C 288.37 123.57 276.37 126.02 281.00 129.00
C 277.67 129.39 276.20 129.23 274.00 132.00
C 274.46 128.71 268.45 126.40 271.00 131.00
C 268.58 129.59 267.14 133.46 264.00 133.00
C 263.05 128.89 253.58 131.94 253.00 136.00
C 251.99 133.45 251.40 129.95 248.00 132.00
C 253.05 132.08 247.51 136.35 250.00 138.00
M 260.00 246.00 
C 244.02 247.64 227.88 239.75 226.02 221.98 C 224.17 204.20 240.14 193.00 256.00 193.00
C 268.73 193.00 280.50 204.56 281.98 217.03 C 283.45 229.49 271.80 244.79 260.00 246.00
M 222.00 258.00 
C 224.64 261.70 229.51 265.29 234.00 266.00
C 239.36 266.85 245.57 266.00 251.00 266.00
C 260.62 266.00 272.75 268.11 281.00 263.00
C 284.74 260.69 287.92 255.62 290.00 252.00
C 293.07 246.66 296.21 235.09 302.00 232.00
C 308.62 228.47 318.12 232.05 326.00 231.00 C 333.88 229.95 343.92 231.78 352.00 231.00
C 349.37 255.48 332.83 278.12 311.00 290.00
C 306.07 292.84 300.54 295.52 295.00 297.00
C 291.46 297.95 287.66 298.42 284.00 299.00
C 279.05 299.79 274.21 300.00 269.00 300.00
C 263.67 300.00 258.33 300.00 253.00 300.00
C 244.33 300.00 235.67 300.00 227.00 300.00
C 222.00 300.00 217.00 300.00 212.00 300.00
C 197.33 300.00 182.67 300.00 168.00 300.00
C 168.00 277.00 168.00 254.00 168.00 231.00
C 180.33 231.00 192.67 231.00 205.00 231.00
C 209.49 232.44 210.94 240.24 213.92 244.08 C 216.90 247.92 219.11 253.95 222.00 258.00
M 206.00 340.00 
C 212.91 342.06 209.20 352.66 201.78 350.22 C 194.36 347.77 197.71 337.52 206.00 340.00
M 155.00 346.00 
C 162.51 346.79 172.57 344.13 179.08 347.92 C 185.58 351.72 188.13 359.02 187.00 366.00 C 185.87 372.98 180.25 378.40 173.33 379.33 C 166.40 380.25 153.73 382.96 155.00 373.00 C 156.27 363.04 154.05 355.72 155.00 346.00
M 239.00 380.00 
C 237.81 376.03 242.15 360.79 234.97 361.03 C 227.79 361.27 232.24 375.92 231.00 380.00
C 227.67 380.00 224.33 380.00 221.00 380.00
C 221.00 371.00 221.00 362.00 221.00 353.00
C 224.21 353.91 231.57 350.59 231.00 356.00
C 248.75 337.69 261.31 385.90 239.00 380.00
M 287.00 368.00 
C 281.33 368.00 275.67 368.00 270.00 368.00
C 272.18 374.16 281.53 367.90 287.00 370.00
C 282.06 386.99 256.43 379.96 260.00 363.00 C 263.57 346.04 290.20 350.69 287.00 368.00
M 309.00 353.00 
C 309.37 353.16 308.71 355.67 309.00 356.00
C 310.95 354.82 312.58 353.02 315.00 353.00
C 315.42 352.95 316.92 351.14 318.00 352.00
C 317.37 355.83 319.28 360.99 317.00 364.00
C 315.30 365.38 309.55 362.95 309.08 367.08 C 308.61 371.22 310.08 375.12 308.67 378.67 C 307.26 382.22 300.53 378.74 298.00 380.00
C 298.00 371.00 298.00 362.00 298.00 353.00
C 299.75 350.50 307.03 352.14 309.00 353.00
M 209.00 353.00 
C 209.00 362.00 209.00 371.00 209.00 380.00
C 205.33 380.00 201.67 380.00 198.00 380.00
C 198.00 371.00 198.00 362.00 198.00 353.00
C 201.67 353.00 205.33 353.00 209.00 353.00 Z"/>
</g>
<g fill="None" fill-opacity="0.0" stroke="#1E1F34" stroke-opacity="1.00" stroke-width="0.3"><path d="
M 116.00 112.00 
C 113.97 114.61 114.53 112.76 113.00 111.00
C 112.97 114.35 110.85 119.19 107.00 115.00
C 107.26 119.16 106.03 121.06 102.00 119.00
C 105.36 124.80 100.74 120.97 98.00 120.00
C 103.99 125.85 91.35 123.55 91.00 129.00
C 87.45 124.41 85.18 128.58 80.00 126.00
C 81.35 129.72 75.85 129.58 77.00 133.00
C 73.92 131.55 68.56 132.69 71.00 137.00
C 67.79 138.11 66.88 133.77 64.00 134.00
C 66.89 138.40 56.33 138.06 62.00 141.00
C 56.20 141.67 51.89 145.39 46.67 147.67 C 41.46 149.95 38.54 151.82 33.25 154.20 C 27.96 156.58 29.40 159.04 22.00 157.00
C 26.57 158.47 20.62 164.53 23.00 159.00
C 16.53 163.13 9.87 159.24 5.00 166.00
C 6.52 159.61 3.44 165.30 0.00 165.00
L 0.00 229.00
C 8.23 230.01 12.94 224.68 17.00 227.00
C 16.97 222.74 22.14 223.54 25.00 225.00
C 22.36 220.15 29.02 224.78 28.00 220.00
C 32.83 220.86 36.49 217.80 40.25 217.40 C 44.01 217.00 50.48 217.06 45.00 214.00
C 50.37 213.47 54.09 212.15 56.30 210.35 C 58.51 208.55 67.26 210.63 61.00 207.00
C 65.76 208.06 65.99 203.93 70.00 203.00
C 66.04 199.94 70.50 200.05 72.00 203.00
C 72.93 199.61 76.03 197.01 79.00 199.00
C 77.15 194.52 84.43 192.42 86.00 196.00
C 84.66 193.63 88.00 193.38 85.00 191.00
C 90.98 189.25 93.36 184.82 102.00 184.00
C 100.55 181.54 104.19 179.79 102.00 177.00
C 104.70 176.11 106.40 174.52 109.00 177.00
C 108.82 172.73 112.58 175.52 115.00 175.00
C 115.45 171.74 110.55 175.50 112.00 171.00
C 115.49 170.30 120.30 171.84 121.00 167.00
C 125.33 165.67 123.43 169.73 127.00 169.00
C 125.99 166.05 128.77 164.51 129.00 162.00
C 132.55 163.44 133.52 161.10 130.00 160.00
C 132.05 158.97 133.78 160.15 136.00 159.00
C 136.74 155.34 135.22 153.73 133.00 152.00
C 136.13 149.91 137.06 153.94 140.00 154.00
C 141.18 152.75 139.94 150.53 140.00 150.00
C 138.18 148.91 133.20 151.05 136.00 147.00
C 131.43 148.88 128.63 151.25 128.00 155.00
C 122.16 150.47 133.32 149.68 128.00 147.00
C 131.14 147.46 134.21 146.10 135.00 143.00
C 133.25 141.38 131.71 140.50 133.00 138.00
C 135.09 142.18 137.82 137.60 141.00 138.00
C 136.40 134.62 141.73 133.97 145.00 133.00
C 144.78 128.83 144.64 127.47 140.00 129.00
C 139.34 124.33 144.51 124.80 143.00 121.00
C 150.88 122.20 149.93 114.66 156.00 115.00
C 155.62 112.15 157.59 110.18 159.00 108.00
C 153.95 109.72 155.86 105.35 157.00 103.00
C 155.03 100.56 152.25 101.57 153.00 105.00
C 151.30 102.92 150.17 102.58 147.00 100.00
C 145.14 102.12 141.64 103.71 142.00 107.00
C 139.97 105.27 139.19 105.15 137.00 103.00
C 137.67 109.23 131.47 102.76 133.00 110.00
C 130.77 104.44 124.68 111.81 128.00 114.00
C 124.72 111.36 121.03 117.13 119.00 113.00
C 119.66 115.15 117.16 119.02 115.00 117.00
C 117.59 114.90 114.88 115.16 116.00 112.00 Z"/>
</g>
<g fill="None" fill-opacity="0.0" stroke="#3B2D50" stroke-opacity="1.00" stroke-width="0.3"><path d="
M 168.00 139.00 
C 177.67 139.00 187.33 139.00 197.00 139.00
C 205.67 139.00 214.33 139.00 223.00 139.00
C 229.00 139.00 235.00 139.00 241.00 139.00
C 248.67 139.00 256.33 139.00 264.00 139.00
C 267.67 139.00 271.33 139.00 275.00 139.00
C 276.00 139.00 277.00 139.03 278.00 139.00
C 269.46 137.78 259.32 138.00 250.00 138.00
C 243.29 138.00 235.62 137.82 229.00 138.00 C 222.38 138.18 214.27 137.53 208.00 138.00 C 201.73 138.47 192.44 136.91 187.00 138.00 C 181.56 139.09 170.83 134.95 168.00 139.00 Z"/>
</g>
<g fill="None" fill-opacity="0.0" stroke="#5E60FE" stroke-opacity="1.00" stroke-width="0.3"><path d="
M 168.00 184.00 
C 168.00 192.00 168.00 200.00 168.00 208.00
C 179.46 205.87 192.71 210.84 204.00 208.00
C 202.06 184.83 199.15 161.99 197.00 139.00
C 187.33 139.00 177.67 139.00 168.00 139.00
C 165.68 142.32 169.01 149.78 168.00 154.00 C 166.99 158.22 168.38 164.41 168.00 169.00 C 167.62 173.59 168.00 179.31 168.00 184.00 Z"/>
</g>
<g fill="None" fill-opacity="0.0" stroke="#9668FE" stroke-opacity="1.00" stroke-width="0.3"><path d="
M 204.00 208.00 
C 210.07 206.47 211.91 196.44 215.70 191.70 C 219.48 186.95 221.34 179.77 227.00 176.00
C 230.39 165.45 221.27 149.73 223.00 139.00
C 214.33 139.00 205.67 139.00 197.00 139.00
C 199.15 161.99 202.06 184.83 204.00 208.00 Z"/>
</g>
<g fill="None" fill-opacity="0.0" stroke="#C570FB" stroke-opacity="1.00" stroke-width="0.3"><path d="
M 227.00 176.00 
C 229.55 174.30 232.16 173.70 235.00 173.00
C 237.68 172.34 240.71 172.00 244.00 172.00
C 244.01 160.44 240.66 150.82 241.00 139.00
C 235.00 139.00 229.00 139.00 223.00 139.00
C 221.27 149.73 230.39 165.45 227.00 176.00 Z"/>
</g>
<g fill="None" fill-opacity="0.0" stroke="#D97EE3" stroke-opacity="1.00" stroke-width="0.3"><path d="
M 244.00 172.00 
C 251.98 172.00 260.03 171.68 268.00 172.00
C 264.26 169.43 267.75 159.91 266.00 156.00 C 264.25 152.08 265.52 143.83 264.00 139.00
C 256.33 139.00 248.67 139.00 241.00 139.00
C 240.66 150.82 244.01 160.44 244.00 172.00 Z"/>
</g>
<g fill="None" fill-opacity="0.0" stroke="#E689CC" stroke-opacity="1.00" stroke-width="0.3"><path d="
M 268.00 172.00 
C 270.04 172.08 271.56 172.66 273.00 173.00
C 274.72 173.16 277.49 173.32 279.00 174.00
C 273.88 164.09 279.27 149.62 275.00 139.00
C 271.33 139.00 267.67 139.00 264.00 139.00
C 265.52 143.83 264.25 152.08 266.00 156.00 C 267.75 159.91 264.26 169.43 268.00 172.00 Z"/>
</g>
<g fill="None" fill-opacity="0.0" stroke="#EE90BB" stroke-opacity="1.00" stroke-width="0.3"><path d="
M 279.00 174.00 
C 285.12 176.78 288.67 185.62 292.00 191.00
C 290.98 187.14 292.39 178.85 291.00 174.00 C 289.61 169.15 291.12 161.68 289.00 157.00 C 286.88 152.32 290.17 143.17 287.00 140.00
C 283.94 139.39 281.24 138.91 278.00 139.00
C 277.00 139.03 276.00 139.00 275.00 139.00
C 279.27 149.62 273.88 164.09 279.00 174.00 Z"/>
</g>
<g fill="None" fill-opacity="0.0" stroke="#FC9CA6" stroke-opacity="1.00" stroke-width="0.3"><path d="
M 292.00 191.00 
C 296.97 201.18 301.06 210.11 314.00 208.00 C 326.95 205.89 339.12 209.58 352.00 208.00
C 349.02 173.61 319.65 146.53 287.00 140.00
C 290.17 143.17 286.88 152.32 289.00 157.00 C 291.12 161.68 289.61 169.15 291.00 174.00 C 292.39 178.85 290.98 187.14 292.00 191.00 Z"/>
</g>
<g fill="None" fill-opacity="0.0" stroke="#452C4C" stroke-opacity="1.00" stroke-width="0.3"><path d="
M 235.00 173.00 
C 246.70 171.55 261.25 171.94 273.00 173.00
C 271.56 172.66 270.04 172.08 268.00 172.00
C 260.03 171.68 251.98 172.00 244.00 172.00
C 240.71 172.00 237.68 172.34 235.00 173.00 Z"/>
</g>
<g fill="None" fill-opacity="0.0" stroke="#C772F4" stroke-opacity="1.00" stroke-width="0.3"><path d="
M 260.00 246.00 
C 263.26 243.76 259.63 235.53 260.00 231.00 C 260.37 226.47 257.51 218.58 258.00 213.00 C 258.49 207.42 254.47 199.17 256.00 193.00
C 240.14 193.00 224.17 204.20 226.02 221.98 C 227.88 239.75 244.02 247.64 260.00 246.00 Z"/>
</g>
<g fill="None" fill-opacity="0.0" stroke="#DC81D7" stroke-opacity="1.00" stroke-width="0.3"><path d="
M 260.00 246.00 
C 271.80 244.79 283.45 229.49 281.98 217.03 C 280.50 204.56 268.73 193.00 256.00 193.00
C 254.47 199.17 258.49 207.42 258.00 213.00 C 257.51 218.58 260.37 226.47 260.00 231.00 C 259.63 235.53 263.26 243.76 260.00 246.00 Z"/>
</g>
<g fill="None" fill-opacity="0.0" stroke="#505DFC" stroke-opacity="1.00" stroke-width="0.3"><path d="
M 212.00 300.00 
C 209.06 299.72 204.65 298.14 201.00 299.00
C 199.09 276.57 196.40 254.33 194.00 232.00
C 197.50 231.38 202.32 233.27 205.00 231.00
C 192.67 231.00 180.33 231.00 168.00 231.00
C 168.00 254.00 168.00 277.00 168.00 300.00
C 182.67 300.00 197.33 300.00 212.00 300.00 Z"/>
</g>
<g fill="None" fill-opacity="0.0" stroke="#7B64FD" stroke-opacity="1.00" stroke-width="0.3"><path d="
M 212.00 300.00 
C 217.00 300.00 222.00 300.00 227.00 300.00
C 221.61 297.73 224.18 282.99 222.02 277.98 C 219.87 272.96 222.54 261.89 222.00 258.00
C 219.11 253.95 216.90 247.92 213.92 244.08 C 210.94 240.24 209.49 232.44 205.00 231.00
C 202.32 233.27 197.50 231.38 194.00 232.00
C 196.40 254.33 199.09 276.57 201.00 299.00
C 204.65 298.14 209.06 299.72 212.00 300.00 Z"/>
</g>
<g fill="None" fill-opacity="0.0" stroke="#FC9DA3" stroke-opacity="1.00" stroke-width="0.3"><path d="
M 302.00 232.00 
C 308.10 231.14 307.02 246.09 307.60 250.74 C 308.17 255.40 309.54 264.72 309.40 269.75 C 309.25 274.78 313.98 285.36 311.00 290.00
C 332.83 278.12 349.37 255.48 352.00 231.00
C 343.92 231.78 333.88 229.95 326.00 231.00 C 318.12 232.05 308.62 228.47 302.00 232.00 Z"/>
</g>
<g fill="None" fill-opacity="0.0" stroke="#F394B4" stroke-opacity="1.00" stroke-width="0.3"><path d="
M 290.00 252.00 
C 287.86 267.07 294.86 282.20 295.00 297.00
C 300.54 295.52 306.07 292.84 311.00 290.00
C 313.98 285.36 309.25 274.78 309.40 269.75 C 309.54 264.72 308.17 255.40 307.60 250.74 C 307.02 246.09 308.10 231.14 302.00 232.00
C 296.21 235.09 293.07 246.66 290.00 252.00 Z"/>
</g>
<g fill="None" fill-opacity="0.0" stroke="#18141E" stroke-opacity="1.00" stroke-width="0.3"><path d="
M 328.00 359.00 
C 336.13 345.73 356.20 353.38 355.00 368.00 C 353.80 382.63 329.26 384.16 326.00 371.00
C 324.18 372.22 322.47 373.68 320.00 373.00
C 327.30 373.24 315.68 385.05 323.00 380.00
C 323.95 386.74 317.02 381.67 319.00 388.00
C 320.44 385.28 322.26 387.47 325.00 387.00
C 324.42 389.93 321.81 391.91 322.00 395.00
C 319.53 391.62 320.72 395.50 319.00 397.00
C 317.65 395.88 318.88 393.84 319.00 392.00
C 315.66 395.24 317.50 395.73 314.00 393.00
C 314.55 396.39 317.25 398.04 316.00 401.00
C 313.33 399.56 314.84 394.75 312.00 395.00
C 307.77 398.27 309.91 403.73 313.00 407.00
C 309.12 406.05 308.48 410.17 309.00 413.00
C 306.57 408.98 306.26 415.45 310.00 414.00
C 307.03 416.25 308.39 419.40 310.00 421.00
C 307.40 424.45 307.09 421.58 305.00 424.00
C 307.18 426.41 306.36 426.82 304.00 428.00
C 309.41 428.23 307.79 438.58 300.00 438.00
C 301.76 435.91 302.46 433.38 300.00 432.00
C 299.22 434.15 299.11 435.72 296.00 437.00
C 299.89 440.47 292.65 440.09 298.00 442.00
C 291.58 441.94 296.79 442.96 299.00 445.00
C 295.19 445.79 291.19 446.57 296.00 450.00
C 293.95 451.64 291.96 451.18 290.00 452.00
C 294.43 454.43 290.80 456.61 290.00 459.00
C 292.37 463.80 293.98 461.96 293.00 467.00
C 290.23 463.84 290.55 462.86 287.00 466.00
C 290.88 465.33 293.81 470.85 293.00 473.00
C 297.22 474.04 296.53 468.90 300.00 473.00
C 294.57 473.64 297.20 475.73 299.00 478.00
C 296.91 476.98 294.77 476.68 293.00 475.00
C 290.77 477.86 295.45 478.47 292.00 481.00
C 295.03 483.59 299.25 482.96 299.00 479.00
C 303.06 481.64 298.25 485.96 294.00 485.00
C 297.85 485.52 297.33 492.51 295.00 487.00
C 293.95 489.54 293.08 489.86 294.00 493.00
C 289.44 493.56 290.63 497.16 293.00 500.00
C 290.93 502.18 289.93 496.82 288.00 500.00
C 290.14 500.62 290.68 503.11 293.00 505.00
C 290.24 506.74 292.26 509.17 291.00 512.00
L 396.00 512.00
C 395.73 508.85 391.31 509.09 389.00 510.00
C 392.47 506.44 392.32 505.65 392.00 502.00
C 386.50 505.77 390.92 499.91 387.00 498.00
C 389.99 498.44 392.31 498.72 393.00 496.00
C 387.03 495.96 385.62 492.40 381.00 492.00
C 387.24 489.83 375.50 486.77 382.00 483.00
C 379.65 482.15 378.77 478.76 376.00 479.00
C 375.99 475.07 381.01 477.36 381.00 474.00
C 378.89 474.72 374.48 475.69 378.00 473.00
C 374.12 473.56 376.61 468.08 371.00 470.00
C 372.83 467.06 376.26 466.71 380.00 464.00
C 375.09 461.33 378.24 455.50 373.00 454.00
C 377.29 452.40 374.16 452.10 372.00 450.00
C 385.06 452.06 368.33 438.90 377.00 441.00
C 372.85 439.48 373.72 438.30 375.00 435.00
C 371.12 435.63 370.98 429.00 368.00 433.00
C 365.78 429.39 370.99 430.04 372.00 427.00
C 367.70 423.47 378.09 421.50 369.00 422.00
C 376.90 421.91 368.77 415.28 376.00 412.00
C 372.79 408.75 379.36 408.18 373.00 406.00
C 375.33 403.97 377.42 398.43 376.00 394.00
C 379.57 391.95 378.19 395.37 380.00 397.00
C 382.35 393.34 377.04 392.42 379.00 389.00
C 381.00 390.21 380.74 394.44 384.00 394.00
C 381.48 391.47 382.91 391.47 385.00 390.00
C 377.71 389.54 385.11 384.10 382.00 380.00
C 386.05 382.80 383.91 377.82 385.00 376.00
C 386.43 383.97 390.35 377.39 387.00 374.00
C 389.55 376.18 390.85 370.59 389.00 369.00
C 394.84 370.94 394.32 360.60 397.00 367.00
C 398.87 362.61 395.54 362.08 394.00 359.00
C 396.01 357.02 396.56 361.58 399.00 359.00
C 396.88 356.08 398.91 356.51 398.00 353.00
C 402.38 355.58 408.86 352.15 408.00 347.00
C 412.49 351.30 415.06 342.67 419.00 341.00
C 418.67 338.24 417.56 336.17 420.00 334.00
C 421.81 339.70 425.45 330.54 429.00 328.00
C 431.13 330.52 435.51 330.44 432.00 327.00
C 437.56 331.39 441.57 321.86 443.00 327.00
C 443.69 322.20 446.97 321.86 451.00 323.00
C 452.87 317.86 459.11 318.13 461.00 313.00
C 463.36 315.58 469.46 315.62 469.00 311.00
C 471.18 312.98 470.22 313.52 473.10 312.10 C 475.97 310.67 479.82 313.76 478.00 316.00
C 481.10 314.10 480.24 312.32 484.23 311.23 C 488.22 310.14 492.64 315.71 493.00 310.00
C 494.33 316.41 498.77 311.00 501.75 311.41 C 504.73 311.82 508.45 315.34 512.00 314.00
L 512.00 245.00
C 509.62 243.16 509.89 246.30 510.00 248.00
C 507.75 244.59 505.20 243.15 500.00 247.00
C 498.14 243.68 495.94 243.84 493.00 243.00
C 492.95 247.69 489.17 243.85 485.00 243.00
C 482.53 247.67 472.01 247.58 472.00 243.00
C 469.05 242.72 463.22 245.75 465.00 249.00
C 460.94 246.41 454.20 250.61 452.00 253.00
C 450.29 247.73 443.98 254.27 443.00 249.00
C 442.07 251.56 437.78 253.62 435.00 251.00
C 434.17 256.82 425.69 261.93 422.00 256.00
C 422.10 261.45 420.75 255.52 418.00 256.00
C 418.75 260.99 413.61 259.03 410.00 259.00
C 410.23 262.82 409.40 263.18 408.00 260.00
C 408.25 264.17 407.64 263.39 405.00 262.00
C 401.60 266.40 392.80 269.37 395.00 276.00
C 391.26 276.66 382.07 278.36 383.00 284.00
C 379.36 283.02 376.99 282.34 378.00 286.00
C 375.23 286.78 374.09 284.04 372.00 283.00
C 373.31 286.30 369.75 287.91 365.74 288.74 C 361.74 289.58 362.66 294.11 359.00 293.00
C 362.07 298.21 352.54 300.43 360.00 302.00
C 354.13 301.06 356.84 306.84 352.00 309.00
C 357.75 309.35 353.50 313.31 354.00 317.00
C 349.74 311.48 350.23 319.69 347.00 316.00
C 346.99 320.30 342.49 322.72 339.00 323.00
C 341.50 325.76 335.83 327.13 340.00 329.00
C 335.41 328.43 336.36 336.83 332.00 334.00
C 334.27 338.39 332.73 343.35 332.00 348.00
C 330.79 345.40 330.76 343.34 327.00 344.00
C 330.41 345.71 324.63 348.75 329.00 351.00
C 323.64 350.40 325.18 353.24 323.00 356.00
C 324.68 356.98 326.12 358.32 328.00 359.00 Z"/>
</g>
<g fill="None" fill-opacity="0.0" stroke="#E88BC7" stroke-opacity="1.00" stroke-width="0.3"><path d="
M 281.00 263.00 
C 278.64 267.66 282.16 275.59 282.00 281.00 C 281.84 286.42 283.90 293.04 284.00 299.00
C 287.66 298.42 291.46 297.95 295.00 297.00
C 294.86 282.20 287.86 267.07 290.00 252.00
C 287.92 255.62 284.74 260.69 281.00 263.00 Z"/>
</g>
<g fill="None" fill-opacity="0.0" stroke="#A269FC" stroke-opacity="1.00" stroke-width="0.3"><path d="
M 227.00 300.00 
C 235.67 300.00 244.33 300.00 253.00 300.00
C 248.74 299.59 242.98 298.23 238.00 299.00
C 236.84 287.67 235.39 276.26 234.00 266.00
C 229.51 265.29 224.64 261.70 222.00 258.00
C 222.54 261.89 219.87 272.96 222.02 277.98 C 224.18 282.99 221.61 297.73 227.00 300.00 Z"/>
</g>
<g fill="None" fill-opacity="0.0" stroke="#D87DDF" stroke-opacity="1.00" stroke-width="0.3"><path d="
M 251.00 266.00 
C 251.64 266.20 252.75 267.74 254.00 267.00
C 255.62 277.76 256.07 288.05 258.00 299.00
C 261.50 299.62 266.32 297.73 269.00 300.00
C 274.21 300.00 279.05 299.79 284.00 299.00
C 283.90 293.04 281.84 286.42 282.00 281.00 C 282.16 275.59 278.64 267.66 281.00 263.00
C 272.75 268.11 260.62 266.00 251.00 266.00 Z"/>
</g>
<g fill="None" fill-opacity="0.0" stroke="#C16FF9" stroke-opacity="1.00" stroke-width="0.3"><path d="
M 253.00 300.00 
C 258.33 300.00 263.67 300.00 269.00 300.00
C 266.32 297.73 261.50 299.62 258.00 299.00
C 256.07 288.05 255.62 277.76 254.00 267.00
C 252.75 267.74 251.64 266.20 251.00 266.00
C 245.57 266.00 239.36 266.85 234.00 266.00
C 235.39 276.26 236.84 287.67 238.00 299.00
C 242.98 298.23 248.74 299.59 253.00 300.00 Z"/>
</g>
<g fill="None" fill-opacity="0.0" stroke="#1F182A" stroke-opacity="1.00" stroke-width="0.3"><path d="
M 396.00 512.00 
L 512.00 512.00
L 512.00 314.00
C 508.45 315.34 504.73 311.82 501.75 311.41 C 498.77 311.00 494.33 316.41 493.00 310.00
C 492.64 315.71 488.22 310.14 484.23 311.23 C 480.24 312.32 481.10 314.10 478.00 316.00
C 479.82 313.76 475.97 310.67 473.10 312.10 C 470.22 313.52 471.18 312.98 469.00 311.00
C 469.46 315.62 463.36 315.58 461.00 313.00
C 459.11 318.13 452.87 317.86 451.00 323.00
C 446.97 321.86 443.69 322.20 443.00 327.00
C 441.57 321.86 437.56 331.39 432.00 327.00
C 435.51 330.44 431.13 330.52 429.00 328.00
C 425.45 330.54 421.81 339.70 420.00 334.00
C 417.56 336.17 418.67 338.24 419.00 341.00
C 415.06 342.67 412.49 351.30 408.00 347.00
C 408.86 352.15 402.38 355.58 398.00 353.00
C 398.91 356.51 396.88 356.08 399.00 359.00
C 396.56 361.58 396.01 357.02 394.00 359.00
C 395.54 362.08 398.87 362.61 397.00 367.00
C 394.32 360.60 394.84 370.94 389.00 369.00
C 390.85 370.59 389.55 376.18 387.00 374.00
C 390.35 377.39 386.43 383.97 385.00 376.00
C 383.91 377.82 386.05 382.80 382.00 380.00
C 385.11 384.10 377.71 389.54 385.00 390.00
C 382.91 391.47 381.48 391.47 384.00 394.00
C 380.74 394.44 381.00 390.21 379.00 389.00
C 377.04 392.42 382.35 393.34 380.00 397.00
C 378.19 395.37 379.57 391.95 376.00 394.00
C 377.42 398.43 375.33 403.97 373.00 406.00
C 379.36 408.18 372.79 408.75 376.00 412.00
C 368.77 415.28 376.90 421.91 369.00 422.00
C 378.09 421.50 367.70 423.47 372.00 427.00
C 370.99 430.04 365.78 429.39 368.00 433.00
C 370.98 429.00 371.12 435.63 375.00 435.00
C 373.72 438.30 372.85 439.48 377.00 441.00
C 368.33 438.90 385.06 452.06 372.00 450.00
C 374.16 452.10 377.29 452.40 373.00 454.00
C 378.24 455.50 375.09 461.33 380.00 464.00
C 376.26 466.71 372.83 467.06 371.00 470.00
C 376.61 468.08 374.12 473.56 378.00 473.00
C 374.48 475.69 378.89 474.72 381.00 474.00
C 381.01 477.36 375.99 475.07 376.00 479.00
C 378.77 478.76 379.65 482.15 382.00 483.00
C 375.50 486.77 387.24 489.83 381.00 492.00
C 385.62 492.40 387.03 495.96 393.00 496.00
C 392.31 498.72 389.99 498.44 387.00 498.00
C 390.92 499.91 386.50 505.77 392.00 502.00
C 392.32 505.65 392.47 506.44 389.00 510.00
C 391.31 509.09 395.73 508.85 396.00 512.00 Z"/>
</g>
<g fill="None" fill-opacity="0.0" stroke="#575AED" stroke-opacity="1.00" stroke-width="0.3"><path d="
M 206.00 340.00 
C 197.71 337.52 194.36 347.77 201.78 350.22 C 209.20 352.66 212.91 342.06 206.00 340.00 Z"/>
</g>
<g fill="None" fill-opacity="0.0" stroke="#495BF6" stroke-opacity="1.00" stroke-width="0.3"><path d="
M 155.00 346.00 
C 154.05 355.72 156.27 363.04 155.00 373.00 C 153.73 382.96 166.40 380.25 173.33 379.33 C 180.25 378.40 185.87 372.98 187.00 366.00 C 188.13 359.02 185.58 351.72 179.08 347.92 C 172.57 344.13 162.51 346.79 155.00 346.00
M 166.00 370.00 
C 166.00 365.00 166.00 360.00 166.00 355.00
C 178.95 351.23 179.23 373.92 166.00 370.00 Z"/>
</g>
<g fill="None" fill-opacity="0.0" stroke="#9666F5" stroke-opacity="1.00" stroke-width="0.3"><path d="
M 239.00 380.00 
C 261.31 385.90 248.75 337.69 231.00 356.00
C 231.57 350.59 224.21 353.91 221.00 353.00
C 221.00 362.00 221.00 371.00 221.00 380.00
C 224.33 380.00 227.67 380.00 231.00 380.00
C 232.24 375.92 227.79 361.27 234.97 361.03 C 242.15 360.79 237.81 376.03 239.00 380.00 Z"/>
</g>
<g fill="None" fill-opacity="0.0" stroke="#D179E2" stroke-opacity="1.00" stroke-width="0.3"><path d="
M 287.00 368.00 
C 290.20 350.69 263.57 346.04 260.00 363.00 C 256.43 379.96 282.06 386.99 287.00 370.00
C 281.53 367.90 272.18 374.16 270.00 368.00
C 275.67 368.00 281.33 368.00 287.00 368.00
M 277.00 362.00 
C 270.89 365.94 270.07 358.22 277.00 362.00 Z"/>
</g>
<g fill="None" fill-opacity="0.0" stroke="#644150" stroke-opacity="1.00" stroke-width="0.3"><path d="
M 298.00 353.00 
C 301.67 353.00 305.33 353.00 309.00 353.00
C 307.03 352.14 299.75 350.50 298.00 353.00 Z"/>
</g>
<g fill="None" fill-opacity="0.0" stroke="#634050" stroke-opacity="1.00" stroke-width="0.3"><path d="
M 315.00 353.00 
C 318.93 354.31 316.18 360.41 317.00 364.00
C 319.28 360.99 317.37 355.83 318.00 352.00
C 316.92 351.14 315.42 352.95 315.00 353.00 Z"/>
</g>
<g fill="None" fill-opacity="0.0" stroke="#F79AA0" stroke-opacity="1.00" stroke-width="0.3"><path d="
M 328.00 359.00 
C 326.03 362.22 325.04 367.11 326.00 371.00
C 329.26 384.16 353.80 382.63 355.00 368.00 C 356.20 353.38 336.13 345.73 328.00 359.00
M 343.00 362.00 
C 345.90 363.95 343.19 373.16 338.78 370.22 C 334.36 367.28 338.21 358.79 343.00 362.00 Z"/>
</g>
<g fill="None" fill-opacity="0.0" stroke="#555CF3" stroke-opacity="1.00" stroke-width="0.3"><path d="
M 209.00 353.00 
C 205.33 353.00 201.67 353.00 198.00 353.00
C 198.00 362.00 198.00 371.00 198.00 380.00
C 201.67 380.00 205.33 380.00 209.00 380.00
C 209.00 371.00 209.00 362.00 209.00 353.00 Z"/>
</g>
<g fill="None" fill-opacity="0.0" stroke="#E88DB6" stroke-opacity="1.00" stroke-width="0.3"><path d="
M 317.00 364.00 
C 316.18 360.41 318.93 354.31 315.00 353.00
C 312.58 353.02 310.95 354.82 309.00 356.00
C 308.71 355.67 309.37 353.16 309.00 353.00
C 305.33 353.00 301.67 353.00 298.00 353.00
C 298.00 362.00 298.00 371.00 298.00 380.00
C 300.53 378.74 307.26 382.22 308.67 378.67 C 310.08 375.12 308.61 371.22 309.08 367.08 C 309.55 362.95 315.30 365.38 317.00 364.00 Z"/>
</g>
<g fill="None" fill-opacity="0.0" stroke="#111114" stroke-opacity="1.00" stroke-width="0.3"><path d="
M 166.00 370.00 
C 179.23 373.92 178.95 351.23 166.00 355.00
C 166.00 360.00 166.00 365.00 166.00 370.00 Z"/>
</g>
<g fill="None" fill-opacity="0.0" stroke="#1F1824" stroke-opacity="1.00" stroke-width="0.3"><path d="
M 277.00 362.00 
C 270.07 358.22 270.89 365.94 277.00 362.00 Z"/>
</g>
<g fill="None" fill-opacity="0.0" stroke="#231B26" stroke-opacity="1.00" stroke-width="0.3"><path d="
M 343.00 362.00 
C 338.21 358.79 334.36 367.28 338.78 370.22 C 343.19 373.16 345.90 363.95 343.00 362.00 Z"/>
</g>
<g fill="#3E3668" fill-opacity="1.00" stroke="None">
<path d="
M 0.00 113.00 
C 2.44 112.43 1.83 114.84 1.00 116.00
C 3.28 115.27 3.64 113.58 6.00 116.00
C 6.42 110.85 9.81 112.70 8.00 117.00
C 9.49 115.78 10.37 112.63 13.00 113.00
C 13.35 117.27 25.25 112.50 21.00 110.00
C 26.40 111.83 29.77 105.72 32.00 111.00
C 36.72 110.50 36.77 108.43 34.00 106.00
C 39.26 109.40 46.35 108.77 47.00 112.00
C 49.61 106.47 61.88 105.51 51.00 104.00
C 54.12 104.39 58.99 104.17 59.00 100.00
C 60.12 104.28 62.22 101.38 62.00 98.00
C 64.11 101.56 68.09 102.05 64.00 98.00
C 66.66 97.06 70.01 103.59 68.00 98.00
C 71.84 99.63 78.05 94.08 76.00 90.00
C 79.64 90.90 84.93 85.00 88.10 81.10 C 91.26 77.19 95.17 77.32 98.00 71.00
C 98.29 66.97 94.86 66.19 93.00 64.00
C 97.17 64.26 96.32 63.80 95.00 61.00
C 98.93 58.45 103.45 55.58 104.00 51.00
C 109.37 53.86 104.53 49.33 109.00 50.00
C 104.53 46.62 111.78 45.16 108.00 41.00
C 105.47 41.87 106.99 43.98 106.00 46.00
C 102.35 46.64 107.05 41.84 104.00 41.00
C 103.77 45.34 98.65 41.17 98.00 39.00
C 95.91 42.80 91.85 36.61 88.00 38.00
C 88.65 34.61 87.03 32.50 86.00 29.00
C 88.65 29.24 89.73 26.08 90.00 24.00
C 91.31 28.82 93.31 23.12 97.00 24.00
C 94.43 21.24 97.18 18.25 92.00 20.00
C 95.88 16.96 87.66 12.52 85.00 16.00
C 83.36 12.53 81.85 14.88 78.00 13.00
C 77.13 15.91 75.94 19.14 72.00 18.00
C 75.47 19.44 78.07 19.10 75.00 23.00
C 71.97 21.63 70.26 18.89 69.00 23.00
C 67.95 20.72 67.12 20.08 68.00 17.00
C 64.47 21.04 64.16 15.28 59.00 16.00
C 58.81 13.59 56.80 9.43 55.00 13.00
C 55.50 8.45 49.93 7.89 49.00 5.00
C 50.40 5.59 53.28 6.53 53.00 4.00
C 50.15 3.74 48.83 1.29 46.00 0.00
L 0.00 0.00
L 0.00 113.00 Z"/>
</g>
<g fill="#473059" fill-opacity="1.00" stroke="None">
<path d="
M 98.00 71.00 
C 100.41 68.33 108.23 67.97 104.00 64.00
C 105.63 60.51 107.06 64.86 109.00 66.00
C 108.88 62.20 113.27 62.39 110.00 59.00
C 113.07 59.24 114.88 61.75 118.00 62.00
C 118.22 60.69 119.75 59.02 120.00 57.00
C 123.71 61.21 126.99 61.52 130.00 57.00
C 134.17 60.53 138.08 54.87 143.00 59.00
C 143.57 56.74 143.81 56.46 142.00 55.00
C 145.14 53.51 145.64 57.73 148.00 56.00
C 146.18 52.84 152.07 52.73 147.00 51.00
C 150.48 49.40 151.44 47.93 151.00 52.00
C 151.91 46.44 156.18 42.07 159.00 37.00
C 167.01 39.60 168.23 26.05 178.00 28.00
C 172.17 25.60 179.25 23.45 181.00 27.00
C 178.99 19.57 189.21 21.27 194.00 21.00
C 189.51 17.60 192.99 15.62 198.00 17.00
C 195.84 14.12 202.33 13.65 201.00 10.00
C 205.02 12.39 210.38 1.99 215.00 0.00
L 46.00 0.00
C 48.83 1.29 50.15 3.74 53.00 4.00
C 53.28 6.53 50.40 5.59 49.00 5.00
C 49.93 7.89 55.50 8.45 55.00 13.00
C 56.80 9.43 58.81 13.59 59.00 16.00
C 64.16 15.28 64.47 21.04 68.00 17.00
C 67.12 20.08 67.95 20.72 69.00 23.00
C 70.26 18.89 71.97 21.63 75.00 23.00
C 78.07 19.10 75.47 19.44 72.00 18.00
C 75.94 19.14 77.13 15.91 78.00 13.00
C 81.85 14.88 83.36 12.53 85.00 16.00
C 87.66 12.52 95.88 16.96 92.00 20.00
C 97.18 18.25 94.43 21.24 97.00 24.00
C 93.31 23.12 91.31 28.82 90.00 24.00
C 89.73 26.08 88.65 29.24 86.00 29.00
C 87.03 32.50 88.65 34.61 88.00 38.00
C 91.85 36.61 95.91 42.80 98.00 39.00
C 98.65 41.17 103.77 45.34 104.00 41.00
C 107.05 41.84 102.35 46.64 106.00 46.00
C 106.99 43.98 105.47 41.87 108.00 41.00
C 111.78 45.16 104.53 46.62 109.00 50.00
C 104.53 49.33 109.37 53.86 104.00 51.00
C 103.45 55.58 98.93 58.45 95.00 61.00
C 96.32 63.80 97.17 64.26 93.00 64.00
C 94.86 66.19 98.29 66.97 98.00 71.00 Z"/>
</g>
<g fill="#35243C" fill-opacity="1.00" stroke="None">
<path d="
M 143.00 59.00 
C 142.80 59.80 139.51 59.50 142.00 62.00
C 138.03 63.79 137.76 63.31 134.00 63.00
C 134.15 66.06 132.41 67.45 131.00 70.00
C 129.28 67.66 126.85 69.32 123.00 68.00
C 126.54 71.53 122.41 77.17 118.00 75.00
C 115.25 82.42 110.35 90.18 104.00 93.00
C 106.00 96.30 105.53 97.66 102.00 99.00
C 106.35 99.24 111.35 97.66 115.02 95.02 C 118.70 92.39 119.69 92.76 122.00 89.00
C 128.12 90.73 121.87 95.69 130.00 94.00
C 123.12 89.46 133.79 91.79 134.00 87.00
C 135.89 89.03 137.61 88.84 140.00 88.00
C 140.19 93.83 140.60 86.57 144.00 88.00
C 144.79 90.12 144.85 92.30 145.00 95.00
C 138.22 93.22 134.91 104.75 128.00 100.00
C 124.58 105.11 118.53 105.24 116.00 112.00
C 114.88 115.16 117.59 114.90 115.00 117.00
C 117.16 119.02 119.66 115.15 119.00 113.00
C 121.03 117.13 124.72 111.36 128.00 114.00
C 124.68 111.81 130.77 104.44 133.00 110.00
C 131.47 102.76 137.67 109.23 137.00 103.00
C 139.19 105.15 139.97 105.27 142.00 107.00
C 141.64 103.71 145.14 102.12 147.00 100.00
C 150.17 102.58 151.30 102.92 153.00 105.00
C 152.25 101.57 155.03 100.56 157.00 103.00
C 158.17 100.59 156.10 101.95 160.00 103.00
C 161.02 99.90 163.41 96.27 167.00 96.00
C 166.94 97.88 162.94 100.05 166.00 102.00
C 166.19 98.67 170.19 97.04 172.00 95.00
C 174.59 98.26 180.96 94.37 177.00 91.00
C 180.05 89.49 180.60 92.96 184.00 91.00
C 180.52 85.31 195.10 85.72 190.00 82.00
C 192.65 81.22 194.73 83.94 197.00 82.00
C 199.30 81.85 198.32 84.52 200.00 86.00
C 199.64 81.05 202.84 80.63 204.00 85.00
C 205.20 82.91 204.18 79.55 206.00 78.00
C 207.50 79.51 204.80 82.33 208.00 83.00
C 207.61 79.78 211.52 78.30 212.00 75.00
C 214.76 77.49 219.04 73.52 218.00 69.00
C 220.37 69.03 221.72 71.50 224.00 72.00
C 223.10 65.81 228.68 68.48 234.08 66.07 C 239.48 63.65 241.45 52.75 246.00 57.00
C 246.46 54.27 246.14 51.16 250.00 53.00
C 247.31 45.78 255.82 47.37 259.00 47.00
C 260.07 41.25 274.00 36.50 267.00 33.00
C 273.28 34.22 268.69 30.85 273.00 31.00
C 269.45 25.87 276.24 26.08 277.25 22.81 C 278.26 19.53 284.70 15.72 282.00 14.00
C 286.86 12.71 290.53 10.30 286.00 8.00
C 289.47 7.25 291.70 3.74 291.00 0.00
L 215.00 0.00
C 210.38 1.99 205.02 12.39 201.00 10.00
C 202.33 13.65 195.84 14.12 198.00 17.00
C 192.99 15.62 189.51 17.60 194.00 21.00
C 189.21 21.27 178.99 19.57 181.00 27.00
C 179.25 23.45 172.17 25.60 178.00 28.00
C 168.23 26.05 167.01 39.60 159.00 37.00
C 156.18 42.07 151.91 46.44 151.00 52.00
C 151.44 47.93 150.48 49.40 147.00 51.00
C 152.07 52.73 146.18 52.84 148.00 56.00
C 145.64 57.73 145.14 53.51 142.00 55.00
C 143.81 56.46 143.57 56.74 143.00 59.00 Z"/>
</g>
<g fill="#251B29" fill-opacity="1.00" stroke="None">
<path d="
M 157.00 103.00 
C 155.86 105.35 153.95 109.72 159.00 108.00
C 157.59 110.18 155.62 112.15 156.00 115.00
C 149.93 114.66 150.88 122.20 143.00 121.00
C 144.51 124.80 139.34 124.33 140.00 129.00
C 144.64 127.47 144.78 128.83 145.00 133.00
C 141.73 133.97 136.40 134.62 141.00 138.00
C 137.82 137.60 135.09 142.18 133.00 138.00
C 131.71 140.50 133.25 141.38 135.00 143.00
C 134.21 146.10 131.14 147.46 128.00 147.00
C 133.32 149.68 122.16 150.47 128.00 155.00
C 128.63 151.25 131.43 148.88 136.00 147.00
C 133.20 151.05 138.18 148.91 140.00 150.00
C 140.18 148.39 138.60 147.48 140.00 146.00
C 142.37 146.97 143.37 149.58 145.00 151.00
C 145.51 148.32 148.20 149.20 148.00 146.00
C 156.82 146.00 159.25 136.88 167.00 133.00
C 164.07 127.49 169.26 132.72 168.00 127.00
C 169.35 129.86 175.02 129.28 174.00 125.00
C 176.32 129.33 180.28 125.18 181.00 121.00
C 182.46 126.42 184.95 120.12 182.00 118.00
C 185.11 115.54 186.41 120.98 189.00 121.00
C 186.99 119.20 189.10 116.71 191.00 116.00
C 191.01 120.58 193.43 118.34 192.00 115.00
C 195.04 119.50 197.79 115.63 202.00 118.00
C 203.59 116.04 200.77 113.45 203.00 112.00
C 207.44 113.23 203.63 113.80 204.00 117.00
C 207.04 115.95 209.03 112.74 207.00 118.00
C 209.90 113.82 219.12 116.95 221.00 112.00
C 223.00 115.58 224.54 112.53 223.00 110.00
C 225.30 108.41 232.45 111.33 231.00 107.00
C 233.22 107.68 233.55 108.68 236.00 109.00
C 237.86 104.93 246.37 106.27 246.00 99.00
C 247.89 105.50 255.75 92.31 262.00 98.00
C 258.71 96.20 262.03 95.43 264.00 97.00
C 263.49 91.02 268.29 92.20 272.00 92.00
C 267.89 89.26 270.16 89.07 274.00 90.00
C 268.93 85.95 287.01 83.09 280.00 80.00
C 285.71 81.30 287.88 71.12 294.00 75.00
C 294.02 72.72 287.76 72.76 292.00 72.00
C 292.92 71.25 296.64 72.38 296.00 69.00
C 297.66 72.11 300.75 69.52 304.00 70.00
C 303.95 66.74 299.04 69.19 299.00 65.00
C 301.41 67.72 301.78 63.01 304.00 65.00
C 302.82 60.31 310.45 60.00 305.00 57.00
C 307.06 55.00 308.52 53.12 312.00 54.00
C 304.91 51.72 316.56 50.94 313.00 47.00
C 317.93 46.78 323.56 39.50 320.00 37.00
C 326.82 37.68 327.99 29.75 323.00 27.00
C 325.34 26.88 326.68 30.31 329.00 28.00
C 323.39 26.49 330.78 25.09 327.00 23.00
C 331.69 22.15 330.30 21.28 327.00 20.00
C 330.34 20.11 334.84 20.16 330.00 18.00
C 333.19 16.11 337.86 11.27 336.00 7.00
C 340.94 7.18 338.44 2.84 341.00 0.00
L 291.00 0.00
C 291.70 3.74 289.47 7.25 286.00 8.00
C 290.53 10.30 286.86 12.71 282.00 14.00
C 284.70 15.72 278.26 19.53 277.25 22.81 C 276.24 26.08 269.45 25.87 273.00 31.00
C 268.69 30.85 273.28 34.22 267.00 33.00
C 274.00 36.50 260.07 41.25 259.00 47.00
C 255.82 47.37 247.31 45.78 250.00 53.00
C 246.14 51.16 246.46 54.27 246.00 57.00
C 241.45 52.75 239.48 63.65 234.08 66.07 C 228.68 68.48 223.10 65.81 224.00 72.00
C 221.72 71.50 220.37 69.03 218.00 69.00
C 219.04 73.52 214.76 77.49 212.00 75.00
C 211.52 78.30 207.61 79.78 208.00 83.00
C 204.80 82.33 207.50 79.51 206.00 78.00
C 204.18 79.55 205.20 82.91 204.00 85.00
C 202.84 80.63 199.64 81.05 200.00 86.00
C 198.32 84.52 199.30 81.85 197.00 82.00
C 194.73 83.94 192.65 81.22 190.00 82.00
C 195.10 85.72 180.52 85.31 184.00 91.00
C 180.60 92.96 180.05 89.49 177.00 91.00
C 180.96 94.37 174.59 98.26 172.00 95.00
C 170.19 97.04 166.19 98.67 166.00 102.00
C 162.94 100.05 166.94 97.88 167.00 96.00
C 163.41 96.27 161.02 99.90 160.00 103.00
C 156.10 101.95 158.17 100.59 157.00 103.00 Z"/>
</g>
<g fill="#18151E" fill-opacity="1.00" stroke="None">
<path d="
M 140.00 150.00 
C 139.94 150.53 141.18 152.75 140.00 154.00
C 137.06 153.94 136.13 149.91 133.00 152.00
C 135.22 153.73 136.74 155.34 136.00 159.00
C 133.78 160.15 132.05 158.97 130.00 160.00
C 133.52 161.10 132.55 163.44 129.00 162.00
C 128.77 164.51 125.99 166.05 127.00 169.00
C 123.43 169.73 125.33 165.67 121.00 167.00
C 120.30 171.84 115.49 170.30 112.00 171.00
C 110.55 175.50 115.45 171.74 115.00 175.00
C 112.58 175.52 108.82 172.73 109.00 177.00
C 106.40 174.52 104.70 176.11 102.00 177.00
C 104.19 179.79 100.55 181.54 102.00 184.00
C 93.36 184.82 90.98 189.25 85.00 191.00
C 88.00 193.38 84.66 193.63 86.00 196.00
C 84.43 192.42 77.15 194.52 79.00 199.00
C 76.03 197.01 72.93 199.61 72.00 203.00
C 70.50 200.05 66.04 199.94 70.00 203.00
C 65.99 203.93 65.76 208.06 61.00 207.00
C 67.26 210.63 58.51 208.55 56.30 210.35 C 54.09 212.15 50.37 213.47 45.00 214.00
C 50.48 217.06 44.01 217.00 40.25 217.40 C 36.49 217.80 32.83 220.86 28.00 220.00
C 29.02 224.78 22.36 220.15 25.00 225.00
C 22.14 223.54 16.97 222.74 17.00 227.00
C 12.94 224.68 8.23 230.01 0.00 229.00
L 0.00 265.00
C 3.39 263.39 10.44 267.14 10.00 261.00
C 12.78 264.11 13.98 260.53 18.00 263.00
C 16.18 260.11 19.58 260.12 19.00 257.00
C 22.31 257.28 21.31 260.45 23.00 262.00
C 24.82 256.04 36.72 266.77 32.00 257.00
C 34.43 257.51 38.61 260.44 39.00 256.00
C 39.37 259.64 42.64 256.84 43.00 260.00
C 44.96 258.97 46.79 256.31 49.00 258.00
C 46.76 254.65 52.75 253.88 54.00 256.00
C 53.54 252.86 57.41 251.42 56.00 249.00
C 60.45 249.99 68.66 250.94 68.00 244.00
C 71.45 248.37 83.33 245.39 81.00 238.00
C 83.77 236.43 81.36 243.60 82.93 240.86 C 84.50 238.12 86.69 240.28 89.00 241.00
C 89.57 238.04 84.07 239.60 85.00 236.00
C 89.13 238.90 93.10 239.96 98.00 240.00
C 93.36 237.46 99.65 235.75 102.00 238.00
C 102.82 234.61 106.01 236.36 105.00 232.00
C 110.18 231.74 110.01 228.52 105.00 231.00
C 110.00 228.50 111.86 220.99 117.00 223.00
C 117.69 220.38 119.66 218.85 118.00 216.00
C 120.88 218.07 122.94 215.58 123.00 213.00
C 126.39 218.38 127.48 210.09 133.00 213.00
C 133.30 208.88 127.40 212.37 128.00 208.00
C 130.12 206.39 130.26 209.81 133.00 208.00
C 132.02 205.30 135.13 199.80 139.00 201.00
C 135.15 198.98 141.60 195.74 145.08 194.08 C 148.56 192.42 152.49 187.34 157.00 189.00
C 154.76 186.59 159.14 185.52 160.00 184.00
C 164.26 186.33 163.96 185.10 168.00 184.00
C 168.00 179.31 167.62 173.59 168.00 169.00 C 168.38 164.41 166.99 158.22 168.00 154.00 C 169.01 149.78 165.68 142.32 168.00 139.00
C 170.83 134.95 181.56 139.09 187.00 138.00 C 192.44 136.91 201.73 138.47 208.00 138.00 C 214.27 137.53 222.38 138.18 229.00 138.00 C 235.62 137.82 243.29 138.00 250.00 138.00
C 247.51 136.35 253.05 132.08 248.00 132.00
C 251.40 129.95 251.99 133.45 253.00 136.00
C 253.58 131.94 263.05 128.89 264.00 133.00
C 267.14 133.46 268.58 129.59 271.00 131.00
C 268.45 126.40 274.46 128.71 274.00 132.00
C 276.20 129.23 277.67 129.39 281.00 129.00
C 276.37 126.02 288.37 123.57 287.00 120.00
C 289.61 117.69 290.58 122.19 293.00 122.00
C 289.80 115.85 297.66 121.47 299.00 117.00
C 298.19 119.57 297.54 121.43 301.00 120.00
C 301.10 115.74 304.98 113.49 308.00 116.00
C 305.86 109.82 314.94 110.33 311.00 106.00
C 314.76 104.93 317.75 102.32 321.00 105.00
C 319.19 99.37 325.62 104.75 325.00 99.00
C 329.26 102.16 330.76 95.15 335.00 96.00
C 330.71 91.83 337.60 93.55 337.00 89.00
C 339.69 92.82 338.74 88.72 342.00 88.00
C 340.70 85.78 340.44 84.61 340.00 82.00
C 344.26 86.11 348.22 77.85 347.00 74.00
C 349.73 71.75 350.54 72.91 353.00 74.00
C 352.51 71.30 352.76 69.39 351.00 67.00
C 355.15 69.92 356.18 69.09 361.00 69.00
C 365.65 35.73 390.16 8.38 424.00 3.00
C 424.53 1.72 423.03 1.14 423.00 0.00
L 341.00 0.00
C 338.44 2.84 340.94 7.18 336.00 7.00
C 337.86 11.27 333.19 16.11 330.00 18.00
C 334.84 20.16 330.34 20.11 327.00 20.00
C 330.30 21.28 331.69 22.15 327.00 23.00
C 330.78 25.09 323.39 26.49 329.00 28.00
C 326.68 30.31 325.34 26.88 323.00 27.00
C 327.99 29.75 326.82 37.68 320.00 37.00
C 323.56 39.50 317.93 46.78 313.00 47.00
C 316.56 50.94 304.91 51.72 312.00 54.00
C 308.52 53.12 307.06 55.00 305.00 57.00
C 310.45 60.00 302.82 60.31 304.00 65.00
C 301.78 63.01 301.41 67.72 299.00 65.00
C 299.04 69.19 303.95 66.74 304.00 70.00
C 300.75 69.52 297.66 72.11 296.00 69.00
C 296.64 72.38 292.92 71.25 292.00 72.00
C 287.76 72.76 294.02 72.72 294.00 75.00
C 287.88 71.12 285.71 81.30 280.00 80.00
C 287.01 83.09 268.93 85.95 274.00 90.00
C 270.16 89.07 267.89 89.26 272.00 92.00
C 268.29 92.20 263.49 91.02 264.00 97.00
C 262.03 95.43 258.71 96.20 262.00 98.00
C 255.75 92.31 247.89 105.50 246.00 99.00
C 246.37 106.27 237.86 104.93 236.00 109.00
C 233.55 108.68 233.22 107.68 231.00 107.00
C 232.45 111.33 225.30 108.41 223.00 110.00
C 224.54 112.53 223.00 115.58 221.00 112.00
C 219.12 116.95 209.90 113.82 207.00 118.00
C 209.03 112.74 207.04 115.95 204.00 117.00
C 203.63 113.80 207.44 113.23 203.00 112.00
C 200.77 113.45 203.59 116.04 202.00 118.00
C 197.79 115.63 195.04 119.50 192.00 115.00
C 193.43 118.34 191.01 120.58 191.00 116.00
C 189.10 116.71 186.99 119.20 189.00 121.00
C 186.41 120.98 185.11 115.54 182.00 118.00
C 184.95 120.12 182.46 126.42 181.00 121.00
C 180.28 125.18 176.32 129.33 174.00 125.00
C 175.02 129.28 169.35 129.86 168.00 127.00
C 169.26 132.72 164.07 127.49 167.00 133.00
C 159.25 136.88 156.82 146.00 148.00 146.00
C 148.20 149.20 145.51 148.32 145.00 151.00
C 143.37 149.58 142.37 146.97 140.00 146.00
C 138.60 147.48 140.18 148.39 140.00 150.00 Z"/>
</g>
<g fill="#101012" fill-opacity="1.00" stroke="None">
<path d="
M 424.00 3.00 
C 465.87 -3.66 507.17 27.30 512.00 69.00
L 512.00 0.00
L 423.00 0.00
C 423.03 1.14 424.53 1.72 424.00 3.00 Z"/>
</g>
<g fill="#EC1B23" fill-opacity="1.00" stroke="None">
<path d="
M 424.00 3.00 
C 390.16 8.38 365.65 35.73 361.00 69.00
C 355.17 110.77 386.57 148.63 427.67 153.33 C 468.77 158.03 507.99 126.89 512.00 86.00
L 512.00 69.00
C 507.17 27.30 465.87 -3.66 424.00 3.00 Z"/>
</g>
<g fill="#2D2A4D" fill-opacity="1.00" stroke="None">
<path d="
M 98.00 71.00 
C 95.17 77.32 91.26 77.19 88.10 81.10 C 84.93 85.00 79.64 90.90 76.00 90.00
C 78.05 94.08 71.84 99.63 68.00 98.00
C 70.01 103.59 66.66 97.06 64.00 98.00
C 68.09 102.05 64.11 101.56 62.00 98.00
C 62.22 101.38 60.12 104.28 59.00 100.00
C 58.99 104.17 54.12 104.39 51.00 104.00
C 61.88 105.51 49.61 106.47 47.00 112.00
C 46.35 108.77 39.26 109.40 34.00 106.00
C 36.77 108.43 36.72 110.50 32.00 111.00
C 29.77 105.72 26.40 111.83 21.00 110.00
C 25.25 112.50 13.35 117.27 13.00 113.00
C 10.37 112.63 9.49 115.78 8.00 117.00
C 9.81 112.70 6.42 110.85 6.00 116.00
C 3.64 113.58 3.28 115.27 1.00 116.00
C 1.83 114.84 2.44 112.43 0.00 113.00
L 0.00 165.00
C 3.44 165.30 6.52 159.61 5.00 166.00
C 9.87 159.24 16.53 163.13 23.00 159.00
C 20.62 164.53 26.57 158.47 22.00 157.00
C 29.40 159.04 27.96 156.58 33.25 154.20 C 38.54 151.82 41.46 149.95 46.67 147.67 C 51.89 145.39 56.20 141.67 62.00 141.00
C 56.33 138.06 66.89 138.40 64.00 134.00
C 66.88 133.77 67.79 138.11 71.00 137.00
C 68.56 132.69 73.92 131.55 77.00 133.00
C 75.85 129.58 81.35 129.72 80.00 126.00
C 85.18 128.58 87.45 124.41 91.00 129.00
C 91.35 123.55 103.99 125.85 98.00 120.00
C 100.74 120.97 105.36 124.80 102.00 119.00
C 106.03 121.06 107.26 119.16 107.00 115.00
C 110.85 119.19 112.97 114.35 113.00 111.00
C 114.53 112.76 113.97 114.61 116.00 112.00
C 118.53 105.24 124.58 105.11 128.00 100.00
C 134.91 104.75 138.22 93.22 145.00 95.00
C 144.85 92.30 144.79 90.12 144.00 88.00
C 140.60 86.57 140.19 93.83 140.00 88.00
C 137.61 88.84 135.89 89.03 134.00 87.00
C 133.79 91.79 123.12 89.46 130.00 94.00
C 121.87 95.69 128.12 90.73 122.00 89.00
C 119.69 92.76 118.70 92.39 115.02 95.02 C 111.35 97.66 106.35 99.24 102.00 99.00
C 105.53 97.66 106.00 96.30 104.00 93.00
C 110.35 90.18 115.25 82.42 118.00 75.00
C 122.41 77.17 126.54 71.53 123.00 68.00
C 126.85 69.32 129.28 67.66 131.00 70.00
C 132.41 67.45 134.15 66.06 134.00 63.00
C 137.76 63.31 138.03 63.79 142.00 62.00
C 139.51 59.50 142.80 59.80 143.00 59.00
C 138.08 54.87 134.17 60.53 130.00 57.00
C 126.99 61.52 123.71 61.21 120.00 57.00
C 119.75 59.02 118.22 60.69 118.00 62.00
C 114.88 61.75 113.07 59.24 110.00 59.00
C 113.27 62.39 108.88 62.20 109.00 66.00
C 107.06 64.86 105.63 60.51 104.00 64.00
C 108.23 67.97 100.41 68.33 98.00 71.00 Z"/>
</g>
<g fill="#111013" fill-opacity="1.00" stroke="None">
<path d="
M 250.00 138.00 
C 259.32 138.00 269.46 137.78 278.00 139.00
C 281.24 138.91 283.94 139.39 287.00 140.00
C 319.65 146.53 349.02 173.61 352.00 208.00
C 339.12 209.58 326.95 205.89 314.00 208.00 C 301.06 210.11 296.97 201.18 292.00 191.00
C 288.67 185.62 285.12 176.78 279.00 174.00
C 277.49 173.32 274.72 173.16 273.00 173.00
C 261.25 171.94 246.70 171.55 235.00 173.00
C 232.16 173.70 229.55 174.30 227.00 176.00
C 221.34 179.77 219.48 186.95 215.70 191.70 C 211.91 196.44 210.07 206.47 204.00 208.00
C 192.71 210.84 179.46 205.87 168.00 208.00
C 168.00 200.00 168.00 192.00 168.00 184.00
C 163.96 185.10 164.26 186.33 160.00 184.00
C 159.14 185.52 154.76 186.59 157.00 189.00
C 152.49 187.34 148.56 192.42 145.08 194.08 C 141.60 195.74 135.15 198.98 139.00 201.00
C 135.13 199.80 132.02 205.30 133.00 208.00
C 130.26 209.81 130.12 206.39 128.00 208.00
C 127.40 212.37 133.30 208.88 133.00 213.00
C 127.48 210.09 126.39 218.38 123.00 213.00
C 122.94 215.58 120.88 218.07 118.00 216.00
C 119.66 218.85 117.69 220.38 117.00 223.00
C 111.86 220.99 110.00 228.50 105.00 231.00
C 110.01 228.52 110.18 231.74 105.00 232.00
C 106.01 236.36 102.82 234.61 102.00 238.00
C 99.65 235.75 93.36 237.46 98.00 240.00
C 93.10 239.96 89.13 238.90 85.00 236.00
C 84.07 239.60 89.57 238.04 89.00 241.00
C 86.69 240.28 84.50 238.12 82.93 240.86 C 81.36 243.60 83.77 236.43 81.00 238.00
C 83.33 245.39 71.45 248.37 68.00 244.00
C 68.66 250.94 60.45 249.99 56.00 249.00
C 57.41 251.42 53.54 252.86 54.00 256.00
C 52.75 253.88 46.76 254.65 49.00 258.00
C 46.79 256.31 44.96 258.97 43.00 260.00
C 42.64 256.84 39.37 259.64 39.00 256.00
C 38.61 260.44 34.43 257.51 32.00 257.00
C 36.72 266.77 24.82 256.04 23.00 262.00
C 21.31 260.45 22.31 257.28 19.00 257.00
C 19.58 260.12 16.18 260.11 18.00 263.00
C 13.98 260.53 12.78 264.11 10.00 261.00
C 10.44 267.14 3.39 263.39 0.00 265.00
L 0.00 512.00
L 291.00 512.00
C 292.26 509.17 290.24 506.74 293.00 505.00
C 290.68 503.11 290.14 500.62 288.00 500.00
C 289.93 496.82 290.93 502.18 293.00 500.00
C 290.63 497.16 289.44 493.56 294.00 493.00
C 293.08 489.86 293.95 489.54 295.00 487.00
C 297.33 492.51 297.85 485.52 294.00 485.00
C 298.25 485.96 303.06 481.64 299.00 479.00
C 299.25 482.96 295.03 483.59 292.00 481.00
C 295.45 478.47 290.77 477.86 293.00 475.00
C 294.77 476.68 296.91 476.98 299.00 478.00
C 297.20 475.73 294.57 473.64 300.00 473.00
C 296.53 468.90 297.22 474.04 293.00 473.00
C 293.81 470.85 290.88 465.33 287.00 466.00
C 290.55 462.86 290.23 463.84 293.00 467.00
C 293.98 461.96 292.37 463.80 290.00 459.00
C 290.80 456.61 294.43 454.43 290.00 452.00
C 291.96 451.18 293.95 451.64 296.00 450.00
C 291.19 446.57 295.19 445.79 299.00 445.00
C 296.79 442.96 291.58 441.94 298.00 442.00
C 292.65 440.09 299.89 440.47 296.00 437.00
C 299.11 435.72 299.22 434.15 300.00 432.00
C 302.46 433.38 301.76 435.91 300.00 438.00
C 307.79 438.58 309.41 428.23 304.00 428.00
C 306.36 426.82 307.18 426.41 305.00 424.00
C 307.09 421.58 307.40 424.45 310.00 421.00
C 308.39 419.40 307.03 416.25 310.00 414.00
C 306.26 415.45 306.57 408.98 309.00 413.00
C 308.48 410.17 309.12 406.05 313.00 407.00
C 309.91 403.73 307.77 398.27 312.00 395.00
C 314.84 394.75 313.33 399.56 316.00 401.00
C 317.25 398.04 314.55 396.39 314.00 393.00
C 317.50 395.73 315.66 395.24 319.00 392.00
C 318.88 393.84 317.65 395.88 319.00 397.00
C 320.72 395.50 319.53 391.62 322.00 395.00
C 321.81 391.91 324.42 389.93 325.00 387.00
C 322.26 387.47 320.44 385.28 319.00 388.00
C 317.02 381.67 323.95 386.74 323.00 380.00
C 315.68 385.05 327.30 373.24 320.00 373.00
C 322.47 373.68 324.18 372.22 326.00 371.00
C 325.04 367.11 326.03 362.22 328.00 359.00
C 326.12 358.32 324.68 356.98 323.00 356.00
C 325.18 353.24 323.64 350.40 329.00 351.00
C 324.63 348.75 330.41 345.71 327.00 344.00
C 330.76 343.34 330.79 345.40 332.00 348.00
C 332.73 343.35 334.27 338.39 332.00 334.00
C 336.36 336.83 335.41 328.43 340.00 329.00
C 335.83 327.13 341.50 325.76 339.00 323.00
C 342.49 322.72 346.99 320.30 347.00 316.00
C 350.23 319.69 349.74 311.48 354.00 317.00
C 353.50 313.31 357.75 309.35 352.00 309.00
C 356.84 306.84 354.13 301.06 360.00 302.00
C 352.54 300.43 362.07 298.21 359.00 293.00
C 362.66 294.11 361.74 289.58 365.74 288.74 C 369.75 287.91 373.31 286.30 372.00 283.00
C 374.09 284.04 375.23 286.78 378.00 286.00
C 376.99 282.34 379.36 283.02 383.00 284.00
C 382.07 278.36 391.26 276.66 395.00 276.00
C 392.80 269.37 401.60 266.40 405.00 262.00
C 407.64 263.39 408.25 264.17 408.00 260.00
C 409.40 263.18 410.23 262.82 410.00 259.00
C 413.61 259.03 418.75 260.99 418.00 256.00
C 420.75 255.52 422.10 261.45 422.00 256.00
C 425.69 261.93 434.17 256.82 435.00 251.00
C 437.78 253.62 442.07 251.56 443.00 249.00
C 443.98 254.27 450.29 247.73 452.00 253.00
C 454.20 250.61 460.94 246.41 465.00 249.00
C 463.22 245.75 469.05 242.72 472.00 243.00
C 472.01 247.58 482.53 247.67 485.00 243.00
C 489.17 243.85 492.95 247.69 493.00 243.00
C 495.94 243.84 498.14 243.68 500.00 247.00
C 505.20 243.15 507.75 244.59 510.00 248.00
C 509.89 246.30 509.62 243.16 512.00 245.00
L 512.00 86.00
C 507.99 126.89 468.77 158.03 427.67 153.33 C 386.57 148.63 355.17 110.77 361.00 69.00
C 356.18 69.09 355.15 69.92 351.00 67.00
C 352.76 69.39 352.51 71.30 353.00 74.00
C 350.54 72.91 349.73 71.75 347.00 74.00
C 348.22 77.85 344.26 86.11 340.00 82.00
C 340.44 84.61 340.70 85.78 342.00 88.00
C 338.74 88.72 339.69 92.82 337.00 89.00
C 337.60 93.55 330.71 91.83 335.00 96.00
C 330.76 95.15 329.26 102.16 325.00 99.00
C 325.62 104.75 319.19 99.37 321.00 105.00
C 317.75 102.32 314.76 104.93 311.00 106.00
C 314.94 110.33 305.86 109.82 308.00 116.00
C 304.98 113.49 301.10 115.74 301.00 120.00
C 297.54 121.43 298.19 119.57 299.00 117.00
C 297.66 121.47 289.80 115.85 293.00 122.00
C 290.58 122.19 289.61 117.69 287.00 120.00
C 288.37 123.57 276.37 126.02 281.00 129.00
C 277.67 129.39 276.20 129.23 274.00 132.00
C 274.46 128.71 268.45 126.40 271.00 131.00
C 268.58 129.59 267.14 133.46 264.00 133.00
C 263.05 128.89 253.58 131.94 253.00 136.00
C 251.99 133.45 251.40 129.95 248.00 132.00
C 253.05 132.08 247.51 136.35 250.00 138.00
M 260.00 246.00 
C 244.02 247.64 227.88 239.75 226.02 221.98 C 224.17 204.20 240.14 193.00 256.00 193.00
C 268.73 193.00 280.50 204.56 281.98 217.03 C 283.45 229.49 271.80 244.79 260.00 246.00
M 222.00 258.00 
C 224.64 261.70 229.51 265.29 234.00 266.00
C 239.36 266.85 245.57 266.00 251.00 266.00
C 260.62 266.00 272.75 268.11 281.00 263.00
C 284.74 260.69 287.92 255.62 290.00 252.00
C 293.07 246.66 296.21 235.09 302.00 232.00
C 308.62 228.47 318.12 232.05 326.00 231.00 C 333.88 229.95 343.92 231.78 352.00 231.00
C 349.37 255.48 332.83 278.12 311.00 290.00
C 306.07 292.84 300.54 295.52 295.00 297.00
C 291.46 297.95 287.66 298.42 284.00 299.00
C 279.05 299.79 274.21 300.00 269.00 300.00
C 263.67 300.00 258.33 300.00 253.00 300.00
C 244.33 300.00 235.67 300.00 227.00 300.00
C 222.00 300.00 217.00 300.00 212.00 300.00
C 197.33 300.00 182.67 300.00 168.00 300.00
C 168.00 277.00 168.00 254.00 168.00 231.00
C 180.33 231.00 192.67 231.00 205.00 231.00
C 209.49 232.44 210.94 240.24 213.92 244.08 C 216.90 247.92 219.11 253.95 222.00 258.00
M 206.00 340.00 
C 212.91 342.06 209.20 352.66 201.78 350.22 C 194.36 347.77 197.71 337.52 206.00 340.00
M 155.00 346.00 
C 162.51 346.79 172.57 344.13 179.08 347.92 C 185.58 351.72 188.13 359.02 187.00 366.00 C 185.87 372.98 180.25 378.40 173.33 379.33 C 166.40 380.25 153.73 382.96 155.00 373.00 C 156.27 363.04 154.05 355.72 155.00 346.00
M 239.00 380.00 
C 237.81 376.03 242.15 360.79 234.97 361.03 C 227.79 361.27 232.24 375.92 231.00 380.00
C 227.67 380.00 224.33 380.00 221.00 380.00
C 221.00 371.00 221.00 362.00 221.00 353.00
C 224.21 353.91 231.57 350.59 231.00 356.00
C 248.75 337.69 261.31 385.90 239.00 380.00
M 287.00 368.00 
C 281.33 368.00 275.67 368.00 270.00 368.00
C 272.18 374.16 281.53 367.90 287.00 370.00
C 282.06 386.99 256.43 379.96 260.00 363.00 C 263.57 346.04 290.20 350.69 287.00 368.00
M 309.00 353.00 
C 309.37 353.16 308.71 355.67 309.00 356.00
C 310.95 354.82 312.58 353.02 315.00 353.00
C 315.42 352.95 316.92 351.14 318.00 352.00
C 317.37 355.83 319.28 360.99 317.00 364.00
C 315.30 365.38 309.55 362.95 309.08 367.08 C 308.61 371.22 310.08 375.12 308.67 378.67 C 307.26 382.22 300.53 378.74 298.00 380.00
C 298.00 371.00 298.00 362.00 298.00 353.00
C 299.75 350.50 307.03 352.14 309.00 353.00
M 209.00 353.00 
C 209.00 362.00 209.00 371.00 209.00 380.00
C 205.33 380.00 201.67 380.00 198.00 380.00
C 198.00 371.00 198.00 362.00 198.00 353.00
C 201.67 353.00 205.33 353.00 209.00 353.00 Z"/>
</g>
<g fill="#1E1F34" fill-opacity="1.00" stroke="None">
<path d="
M 116.00 112.00 
C 113.97 114.61 114.53 112.76 113.00 111.00
C 112.97 114.35 110.85 119.19 107.00 115.00
C 107.26 119.16 106.03 121.06 102.00 119.00
C 105.36 124.80 100.74 120.97 98.00 120.00
C 103.99 125.85 91.35 123.55 91.00 129.00
C 87.45 124.41 85.18 128.58 80.00 126.00
C 81.35 129.72 75.85 129.58 77.00 133.00
C 73.92 131.55 68.56 132.69 71.00 137.00
C 67.79 138.11 66.88 133.77 64.00 134.00
C 66.89 138.40 56.33 138.06 62.00 141.00
C 56.20 141.67 51.89 145.39 46.67 147.67 C 41.46 149.95 38.54 151.82 33.25 154.20 C 27.96 156.58 29.40 159.04 22.00 157.00
C 26.57 158.47 20.62 164.53 23.00 159.00
C 16.53 163.13 9.87 159.24 5.00 166.00
C 6.52 159.61 3.44 165.30 0.00 165.00
L 0.00 229.00
C 8.23 230.01 12.94 224.68 17.00 227.00
C 16.97 222.74 22.14 223.54 25.00 225.00
C 22.36 220.15 29.02 224.78 28.00 220.00
C 32.83 220.86 36.49 217.80 40.25 217.40 C 44.01 217.00 50.48 217.06 45.00 214.00
C 50.37 213.47 54.09 212.15 56.30 210.35 C 58.51 208.55 67.26 210.63 61.00 207.00
C 65.76 208.06 65.99 203.93 70.00 203.00
C 66.04 199.94 70.50 200.05 72.00 203.00
C 72.93 199.61 76.03 197.01 79.00 199.00
C 77.15 194.52 84.43 192.42 86.00 196.00
C 84.66 193.63 88.00 193.38 85.00 191.00
C 90.98 189.25 93.36 184.82 102.00 184.00
C 100.55 181.54 104.19 179.79 102.00 177.00
C 104.70 176.11 106.40 174.52 109.00 177.00
C 108.82 172.73 112.58 175.52 115.00 175.00
C 115.45 171.74 110.55 175.50 112.00 171.00
C 115.49 170.30 120.30 171.84 121.00 167.00
C 125.33 165.67 123.43 169.73 127.00 169.00
C 125.99 166.05 128.77 164.51 129.00 162.00
C 132.55 163.44 133.52 161.10 130.00 160.00
C 132.05 158.97 133.78 160.15 136.00 159.00
C 136.74 155.34 135.22 153.73 133.00 152.00
C 136.13 149.91 137.06 153.94 140.00 154.00
C 141.18 152.75 139.94 150.53 140.00 150.00
C 138.18 148.91 133.20 151.05 136.00 147.00
C 131.43 148.88 128.63 151.25 128.00 155.00
C 122.16 150.47 133.32 149.68 128.00 147.00
C 131.14 147.46 134.21 146.10 135.00 143.00
C 133.25 141.38 131.71 140.50 133.00 138.00
C 135.09 142.18 137.82 137.60 141.00 138.00
C 136.40 134.62 141.73 133.97 145.00 133.00
C 144.78 128.83 144.64 127.47 140.00 129.00
C 139.34 124.33 144.51 124.80 143.00 121.00
C 150.88 122.20 149.93 114.66 156.00 115.00
C 155.62 112.15 157.59 110.18 159.00 108.00
C 153.95 109.72 155.86 105.35 157.00 103.00
C 155.03 100.56 152.25 101.57 153.00 105.00
C 151.30 102.92 150.17 102.58 147.00 100.00
C 145.14 102.12 141.64 103.71 142.00 107.00
C 139.97 105.27 139.19 105.15 137.00 103.00
C 137.67 109.23 131.47 102.76 133.00 110.00
C 130.77 104.44 124.68 111.81 128.00 114.00
C 124.72 111.36 121.03 117.13 119.00 113.00
C 119.66 115.15 117.16 119.02 115.00 117.00
C 117.59 114.90 114.88 115.16 116.00 112.00 Z"/>
</g>
<g fill="#3B2D50" fill-opacity="1.00" stroke="None">
<path d="
M 168.00 139.00 
C 177.67 139.00 187.33 139.00 197.00 139.00
C 205.67 139.00 214.33 139.00 223.00 139.00
C 229.00 139.00 235.00 139.00 241.00 139.00
C 248.67 139.00 256.33 139.00 264.00 139.00
C 267.67 139.00 271.33 139.00 275.00 139.00
C 276.00 139.00 277.00 139.03 278.00 139.00
C 269.46 137.78 259.32 138.00 250.00 138.00
C 243.29 138.00 235.62 137.82 229.00 138.00 C 222.38 138.18 214.27 137.53 208.00 138.00 C 201.73 138.47 192.44 136.91 187.00 138.00 C 181.56 139.09 170.83 134.95 168.00 139.00 Z"/>
</g>
<g fill="#5E60FE" fill-opacity="1.00" stroke="None">
<path d="
M 168.00 184.00 
C 168.00 192.00 168.00 200.00 168.00 208.00
C 179.46 205.87 192.71 210.84 204.00 208.00
C 202.06 184.83 199.15 161.99 197.00 139.00
C 187.33 139.00 177.67 139.00 168.00 139.00
C 165.68 142.32 169.01 149.78 168.00 154.00 C 166.99 158.22 168.38 164.41 168.00 169.00 C 167.62 173.59 168.00 179.31 168.00 184.00 Z"/>
</g>
<g fill="#9668FE" fill-opacity="1.00" stroke="None">
<path d="
M 204.00 208.00 
C 210.07 206.47 211.91 196.44 215.70 191.70 C 219.48 186.95 221.34 179.77 227.00 176.00
C 230.39 165.45 221.27 149.73 223.00 139.00
C 214.33 139.00 205.67 139.00 197.00 139.00
C 199.15 161.99 202.06 184.83 204.00 208.00 Z"/>
</g>
<g fill="#C570FB" fill-opacity="1.00" stroke="None">
<path d="
M 227.00 176.00 
C 229.55 174.30 232.16 173.70 235.00 173.00
C 237.68 172.34 240.71 172.00 244.00 172.00
C 244.01 160.44 240.66 150.82 241.00 139.00
C 235.00 139.00 229.00 139.00 223.00 139.00
C 221.27 149.73 230.39 165.45 227.00 176.00 Z"/>
</g>
<g fill="#D97EE3" fill-opacity="1.00" stroke="None">
<path d="
M 244.00 172.00 
C 251.98 172.00 260.03 171.68 268.00 172.00
C 264.26 169.43 267.75 159.91 266.00 156.00 C 264.25 152.08 265.52 143.83 264.00 139.00
C 256.33 139.00 248.67 139.00 241.00 139.00
C 240.66 150.82 244.01 160.44 244.00 172.00 Z"/>
</g>
<g fill="#E689CC" fill-opacity="1.00" stroke="None">
<path d="
M 268.00 172.00 
C 270.04 172.08 271.56 172.66 273.00 173.00
C 274.72 173.16 277.49 173.32 279.00 174.00
C 273.88 164.09 279.27 149.62 275.00 139.00
C 271.33 139.00 267.67 139.00 264.00 139.00
C 265.52 143.83 264.25 152.08 266.00 156.00 C 267.75 159.91 264.26 169.43 268.00 172.00 Z"/>
</g>
<g fill="#EE90BB" fill-opacity="1.00" stroke="None">
<path d="
M 279.00 174.00 
C 285.12 176.78 288.67 185.62 292.00 191.00
C 290.98 187.14 292.39 178.85 291.00 174.00 C 289.61 169.15 291.12 161.68 289.00 157.00 C 286.88 152.32 290.17 143.17 287.00 140.00
C 283.94 139.39 281.24 138.91 278.00 139.00
C 277.00 139.03 276.00 139.00 275.00 139.00
C 279.27 149.62 273.88 164.09 279.00 174.00 Z"/>
</g>
<g fill="#FC9CA6" fill-opacity="1.00" stroke="None">
<path d="
M 292.00 191.00 
C 296.97 201.18 301.06 210.11 314.00 208.00 C 326.95 205.89 339.12 209.58 352.00 208.00
C 349.02 173.61 319.65 146.53 287.00 140.00
C 290.17 143.17 286.88 152.32 289.00 157.00 C 291.12 161.68 289.61 169.15 291.00 174.00 C 292.39 178.85 290.98 187.14 292.00 191.00 Z"/>
</g>
<g fill="#452C4C" fill-opacity="1.00" stroke="None">
<path d="
M 235.00 173.00 
C 246.70 171.55 261.25 171.94 273.00 173.00
C 271.56 172.66 270.04 172.08 268.00 172.00
C 260.03 171.68 251.98 172.00 244.00 172.00
C 240.71 172.00 237.68 172.34 235.00 173.00 Z"/>
</g>
<g fill="#C772F4" fill-opacity="1.00" stroke="None">
<path d="
M 260.00 246.00 
C 263.26 243.76 259.63 235.53 260.00 231.00 C 260.37 226.47 257.51 218.58 258.00 213.00 C 258.49 207.42 254.47 199.17 256.00 193.00
C 240.14 193.00 224.17 204.20 226.02 221.98 C 227.88 239.75 244.02 247.64 260.00 246.00 Z"/>
</g>
<g fill="#DC81D7" fill-opacity="1.00" stroke="None">
<path d="
M 260.00 246.00 
C 271.80 244.79 283.45 229.49 281.98 217.03 C 280.50 204.56 268.73 193.00 256.00 193.00
C 254.47 199.17 258.49 207.42 258.00 213.00 C 257.51 218.58 260.37 226.47 260.00 231.00 C 259.63 235.53 263.26 243.76 260.00 246.00 Z"/>
</g>
<g fill="#505DFC" fill-opacity="1.00" stroke="None">
<path d="
M 212.00 300.00 
C 209.06 299.72 204.65 298.14 201.00 299.00
C 199.09 276.57 196.40 254.33 194.00 232.00
C 197.50 231.38 202.32 233.27 205.00 231.00
C 192.67 231.00 180.33 231.00 168.00 231.00
C 168.00 254.00 168.00 277.00 168.00 300.00
C 182.67 300.00 197.33 300.00 212.00 300.00 Z"/>
</g>
<g fill="#7B64FD" fill-opacity="1.00" stroke="None">
<path d="
M 212.00 300.00 
C 217.00 300.00 222.00 300.00 227.00 300.00
C 221.61 297.73 224.18 282.99 222.02 277.98 C 219.87 272.96 222.54 261.89 222.00 258.00
C 219.11 253.95 216.90 247.92 213.92 244.08 C 210.94 240.24 209.49 232.44 205.00 231.00
C 202.32 233.27 197.50 231.38 194.00 232.00
C 196.40 254.33 199.09 276.57 201.00 299.00
C 204.65 298.14 209.06 299.72 212.00 300.00 Z"/>
</g>
<g fill="#FC9DA3" fill-opacity="1.00" stroke="None">
<path d="
M 302.00 232.00 
C 308.10 231.14 307.02 246.09 307.60 250.74 C 308.17 255.40 309.54 264.72 309.40 269.75 C 309.25 274.78 313.98 285.36 311.00 290.00
C 332.83 278.12 349.37 255.48 352.00 231.00
C 343.92 231.78 333.88 229.95 326.00 231.00 C 318.12 232.05 308.62 228.47 302.00 232.00 Z"/>
</g>
<g fill="#F394B4" fill-opacity="1.00" stroke="None">
<path d="
M 290.00 252.00 
C 287.86 267.07 294.86 282.20 295.00 297.00
C 300.54 295.52 306.07 292.84 311.00 290.00
C 313.98 285.36 309.25 274.78 309.40 269.75 C 309.54 264.72 308.17 255.40 307.60 250.74 C 307.02 246.09 308.10 231.14 302.00 232.00
C 296.21 235.09 293.07 246.66 290.00 252.00 Z"/>
</g>
<g fill="#18141E" fill-opacity="1.00" stroke="None">
<path d="
M 328.00 359.00 
C 336.13 345.73 356.20 353.38 355.00 368.00 C 353.80 382.63 329.26 384.16 326.00 371.00
C 324.18 372.22 322.47 373.68 320.00 373.00
C 327.30 373.24 315.68 385.05 323.00 380.00
C 323.95 386.74 317.02 381.67 319.00 388.00
C 320.44 385.28 322.26 387.47 325.00 387.00
C 324.42 389.93 321.81 391.91 322.00 395.00
C 319.53 391.62 320.72 395.50 319.00 397.00
C 317.65 395.88 318.88 393.84 319.00 392.00
C 315.66 395.24 317.50 395.73 314.00 393.00
C 314.55 396.39 317.25 398.04 316.00 401.00
C 313.33 399.56 314.84 394.75 312.00 395.00
C 307.77 398.27 309.91 403.73 313.00 407.00
C 309.12 406.05 308.48 410.17 309.00 413.00
C 306.57 408.98 306.26 415.45 310.00 414.00
C 307.03 416.25 308.39 419.40 310.00 421.00
C 307.40 424.45 307.09 421.58 305.00 424.00
C 307.18 426.41 306.36 426.82 304.00 428.00
C 309.41 428.23 307.79 438.58 300.00 438.00
C 301.76 435.91 302.46 433.38 300.00 432.00
C 299.22 434.15 299.11 435.72 296.00 437.00
C 299.89 440.47 292.65 440.09 298.00 442.00
C 291.58 441.94 296.79 442.96 299.00 445.00
C 295.19 445.79 291.19 446.57 296.00 450.00
C 293.95 451.64 291.96 451.18 290.00 452.00
C 294.43 454.43 290.80 456.61 290.00 459.00
C 292.37 463.80 293.98 461.96 293.00 467.00
C 290.23 463.84 290.55 462.86 287.00 466.00
C 290.88 465.33 293.81 470.85 293.00 473.00
C 297.22 474.04 296.53 468.90 300.00 473.00
C 294.57 473.64 297.20 475.73 299.00 478.00
C 296.91 476.98 294.77 476.68 293.00 475.00
C 290.77 477.86 295.45 478.47 292.00 481.00
C 295.03 483.59 299.25 482.96 299.00 479.00
C 303.06 481.64 298.25 485.96 294.00 485.00
C 297.85 485.52 297.33 492.51 295.00 487.00
C 293.95 489.54 293.08 489.86 294.00 493.00
C 289.44 493.56 290.63 497.16 293.00 500.00
C 290.93 502.18 289.93 496.82 288.00 500.00
C 290.14 500.62 290.68 503.11 293.00 505.00
C 290.24 506.74 292.26 509.17 291.00 512.00
L 396.00 512.00
C 395.73 508.85 391.31 509.09 389.00 510.00
C 392.47 506.44 392.32 505.65 392.00 502.00
C 386.50 505.77 390.92 499.91 387.00 498.00
C 389.99 498.44 392.31 498.72 393.00 496.00
C 387.03 495.96 385.62 492.40 381.00 492.00
C 387.24 489.83 375.50 486.77 382.00 483.00
C 379.65 482.15 378.77 478.76 376.00 479.00
C 375.99 475.07 381.01 477.36 381.00 474.00
C 378.89 474.72 374.48 475.69 378.00 473.00
C 374.12 473.56 376.61 468.08 371.00 470.00
C 372.83 467.06 376.26 466.71 380.00 464.00
C 375.09 461.33 378.24 455.50 373.00 454.00
C 377.29 452.40 374.16 452.10 372.00 450.00
C 385.06 452.06 368.33 438.90 377.00 441.00
C 372.85 439.48 373.72 438.30 375.00 435.00
C 371.12 435.63 370.98 429.00 368.00 433.00
C 365.78 429.39 370.99 430.04 372.00 427.00
C 367.70 423.47 378.09 421.50 369.00 422.00
C 376.90 421.91 368.77 415.28 376.00 412.00
C 372.79 408.75 379.36 408.18 373.00 406.00
C 375.33 403.97 377.42 398.43 376.00 394.00
C 379.57 391.95 378.19 395.37 380.00 397.00
C 382.35 393.34 377.04 392.42 379.00 389.00
C 381.00 390.21 380.74 394.44 384.00 394.00
C 381.48 391.47 382.91 391.47 385.00 390.00
C 377.71 389.54 385.11 384.10 382.00 380.00
C 386.05 382.80 383.91 377.82 385.00 376.00
C 386.43 383.97 390.35 377.39 387.00 374.00
C 389.55 376.18 390.85 370.59 389.00 369.00
C 394.84 370.94 394.32 360.60 397.00 367.00
C 398.87 362.61 395.54 362.08 394.00 359.00
C 396.01 357.02 396.56 361.58 399.00 359.00
C 396.88 356.08 398.91 356.51 398.00 353.00
C 402.38 355.58 408.86 352.15 408.00 347.00
C 412.49 351.30 415.06 342.67 419.00 341.00
C 418.67 338.24 417.56 336.17 420.00 334.00
C 421.81 339.70 425.45 330.54 429.00 328.00
C 431.13 330.52 435.51 330.44 432.00 327.00
C 437.56 331.39 441.57 321.86 443.00 327.00
C 443.69 322.20 446.97 321.86 451.00 323.00
C 452.87 317.86 459.11 318.13 461.00 313.00
C 463.36 315.58 469.46 315.62 469.00 311.00
C 471.18 312.98 470.22 313.52 473.10 312.10 C 475.97 310.67 479.82 313.76 478.00 316.00
C 481.10 314.10 480.24 312.32 484.23 311.23 C 488.22 310.14 492.64 315.71 493.00 310.00
C 494.33 316.41 498.77 311.00 501.75 311.41 C 504.73 311.82 508.45 315.34 512.00 314.00
L 512.00 245.00
C 509.62 243.16 509.89 246.30 510.00 248.00
C 507.75 244.59 505.20 243.15 500.00 247.00
C 498.14 243.68 495.94 243.84 493.00 243.00
C 492.95 247.69 489.17 243.85 485.00 243.00
C 482.53 247.67 472.01 247.58 472.00 243.00
C 469.05 242.72 463.22 245.75 465.00 249.00
C 460.94 246.41 454.20 250.61 452.00 253.00
C 450.29 247.73 443.98 254.27 443.00 249.00
C 442.07 251.56 437.78 253.62 435.00 251.00
C 434.17 256.82 425.69 261.93 422.00 256.00
C 422.10 261.45 420.75 255.52 418.00 256.00
C 418.75 260.99 413.61 259.03 410.00 259.00
C 410.23 262.82 409.40 263.18 408.00 260.00
C 408.25 264.17 407.64 263.39 405.00 262.00
C 401.60 266.40 392.80 269.37 395.00 276.00
C 391.26 276.66 382.07 278.36 383.00 284.00
C 379.36 283.02 376.99 282.34 378.00 286.00
C 375.23 286.78 374.09 284.04 372.00 283.00
C 373.31 286.30 369.75 287.91 365.74 288.74 C 361.74 289.58 362.66 294.11 359.00 293.00
C 362.07 298.21 352.54 300.43 360.00 302.00
C 354.13 301.06 356.84 306.84 352.00 309.00
C 357.75 309.35 353.50 313.31 354.00 317.00
C 349.74 311.48 350.23 319.69 347.00 316.00
C 346.99 320.30 342.49 322.72 339.00 323.00
C 341.50 325.76 335.83 327.13 340.00 329.00
C 335.41 328.43 336.36 336.83 332.00 334.00
C 334.27 338.39 332.73 343.35 332.00 348.00
C 330.79 345.40 330.76 343.34 327.00 344.00
C 330.41 345.71 324.63 348.75 329.00 351.00
C 323.64 350.40 325.18 353.24 323.00 356.00
C 324.68 356.98 326.12 358.32 328.00 359.00 Z"/>
</g>
<g fill="#E88BC7" fill-opacity="1.00" stroke="None">
<path d="
M 281.00 263.00 
C 278.64 267.66 282.16 275.59 282.00 281.00 C 281.84 286.42 283.90 293.04 284.00 299.00
C 287.66 298.42 291.46 297.95 295.00 297.00
C 294.86 282.20 287.86 267.07 290.00 252.00
C 287.92 255.62 284.74 260.69 281.00 263.00 Z"/>
</g>
<g fill="#A269FC" fill-opacity="1.00" stroke="None">
<path d="
M 227.00 300.00 
C 235.67 300.00 244.33 300.00 253.00 300.00
C 248.74 299.59 242.98 298.23 238.00 299.00
C 236.84 287.67 235.39 276.26 234.00 266.00
C 229.51 265.29 224.64 261.70 222.00 258.00
C 222.54 261.89 219.87 272.96 222.02 277.98 C 224.18 282.99 221.61 297.73 227.00 300.00 Z"/>
</g>
<g fill="#D87DDF" fill-opacity="1.00" stroke="None">
<path d="
M 251.00 266.00 
C 251.64 266.20 252.75 267.74 254.00 267.00
C 255.62 277.76 256.07 288.05 258.00 299.00
C 261.50 299.62 266.32 297.73 269.00 300.00
C 274.21 300.00 279.05 299.79 284.00 299.00
C 283.90 293.04 281.84 286.42 282.00 281.00 C 282.16 275.59 278.64 267.66 281.00 263.00
C 272.75 268.11 260.62 266.00 251.00 266.00 Z"/>
</g>
<g fill="#C16FF9" fill-opacity="1.00" stroke="None">
<path d="
M 253.00 300.00 
C 258.33 300.00 263.67 300.00 269.00 300.00
C 266.32 297.73 261.50 299.62 258.00 299.00
C 256.07 288.05 255.62 277.76 254.00 267.00
C 252.75 267.74 251.64 266.20 251.00 266.00
C 245.57 266.00 239.36 266.85 234.00 266.00
C 235.39 276.26 236.84 287.67 238.00 299.00
C 242.98 298.23 248.74 299.59 253.00 300.00 Z"/>
</g>
<g fill="#1F182A" fill-opacity="1.00" stroke="None">
<path d="
M 396.00 512.00 
L 512.00 512.00
L 512.00 314.00
C 508.45 315.34 504.73 311.82 501.75 311.41 C 498.77 311.00 494.33 316.41 493.00 310.00
C 492.64 315.71 488.22 310.14 484.23 311.23 C 480.24 312.32 481.10 314.10 478.00 316.00
C 479.82 313.76 475.97 310.67 473.10 312.10 C 470.22 313.52 471.18 312.98 469.00 311.00
C 469.46 315.62 463.36 315.58 461.00 313.00
C 459.11 318.13 452.87 317.86 451.00 323.00
C 446.97 321.86 443.69 322.20 443.00 327.00
C 441.57 321.86 437.56 331.39 432.00 327.00
C 435.51 330.44 431.13 330.52 429.00 328.00
C 425.45 330.54 421.81 339.70 420.00 334.00
C 417.56 336.17 418.67 338.24 419.00 341.00
C 415.06 342.67 412.49 351.30 408.00 347.00
C 408.86 352.15 402.38 355.58 398.00 353.00
C 398.91 356.51 396.88 356.08 399.00 359.00
C 396.56 361.58 396.01 357.02 394.00 359.00
C 395.54 362.08 398.87 362.61 397.00 367.00
C 394.32 360.60 394.84 370.94 389.00 369.00
C 390.85 370.59 389.55 376.18 387.00 374.00
C 390.35 377.39 386.43 383.97 385.00 376.00
C 383.91 377.82 386.05 382.80 382.00 380.00
C 385.11 384.10 377.71 389.54 385.00 390.00
C 382.91 391.47 381.48 391.47 384.00 394.00
C 380.74 394.44 381.00 390.21 379.00 389.00
C 377.04 392.42 382.35 393.34 380.00 397.00
C 378.19 395.37 379.57 391.95 376.00 394.00
C 377.42 398.43 375.33 403.97 373.00 406.00
C 379.36 408.18 372.79 408.75 376.00 412.00
C 368.77 415.28 376.90 421.91 369.00 422.00
C 378.09 421.50 367.70 423.47 372.00 427.00
C 370.99 430.04 365.78 429.39 368.00 433.00
C 370.98 429.00 371.12 435.63 375.00 435.00
C 373.72 438.30 372.85 439.48 377.00 441.00
C 368.33 438.90 385.06 452.06 372.00 450.00
C 374.16 452.10 377.29 452.40 373.00 454.00
C 378.24 455.50 375.09 461.33 380.00 464.00
C 376.26 466.71 372.83 467.06 371.00 470.00
C 376.61 468.08 374.12 473.56 378.00 473.00
C 374.48 475.69 378.89 474.72 381.00 474.00
C 381.01 477.36 375.99 475.07 376.00 479.00
C 378.77 478.76 379.65 482.15 382.00 483.00
C 375.50 486.77 387.24 489.83 381.00 492.00
C 385.62 492.40 387.03 495.96 393.00 496.00
C 392.31 498.72 389.99 498.44 387.00 498.00
C 390.92 499.91 386.50 505.77 392.00 502.00
C 392.32 505.65 392.47 506.44 389.00 510.00
C 391.31 509.09 395.73 508.85 396.00 512.00 Z"/>
</g>
<g fill="#575AED" fill-opacity="1.00" stroke="None">
<path d="
M 206.00 340.00 
C 197.71 337.52 194.36 347.77 201.78 350.22 C 209.20 352.66 212.91 342.06 206.00 340.00 Z"/>
</g>
<g fill="#495BF6" fill-opacity="1.00" stroke="None">
<path d="
M 155.00 346.00 
C 154.05 355.72 156.27 363.04 155.00 373.00 C 153.73 382.96 166.40 380.25 173.33 379.33 C 180.25 378.40 185.87 372.98 187.00 366.00 C 188.13 359.02 185.58 351.72 179.08 347.92 C 172.57 344.13 162.51 346.79 155.00 346.00
M 166.00 370.00 
C 166.00 365.00 166.00 360.00 166.00 355.00
C 178.95 351.23 179.23 373.92 166.00 370.00 Z"/>
</g>
<g fill="#9666F5" fill-opacity="1.00" stroke="None">
<path d="
M 239.00 380.00 
C 261.31 385.90 248.75 337.69 231.00 356.00
C 231.57 350.59 224.21 353.91 221.00 353.00
C 221.00 362.00 221.00 371.00 221.00 380.00
C 224.33 380.00 227.67 380.00 231.00 380.00
C 232.24 375.92 227.79 361.27 234.97 361.03 C 242.15 360.79 237.81 376.03 239.00 380.00 Z"/>
</g>
<g fill="#D179E2" fill-opacity="1.00" stroke="None">
<path d="
M 287.00 368.00 
C 290.20 350.69 263.57 346.04 260.00 363.00 C 256.43 379.96 282.06 386.99 287.00 370.00
C 281.53 367.90 272.18 374.16 270.00 368.00
C 275.67 368.00 281.33 368.00 287.00 368.00
M 277.00 362.00 
C 270.89 365.94 270.07 358.22 277.00 362.00 Z"/>
</g>
<g fill="#644150" fill-opacity="1.00" stroke="None">
<path d="
M 298.00 353.00 
C 301.67 353.00 305.33 353.00 309.00 353.00
C 307.03 352.14 299.75 350.50 298.00 353.00 Z"/>
</g>
<g fill="#634050" fill-opacity="1.00" stroke="None">
<path d="
M 315.00 353.00 
C 318.93 354.31 316.18 360.41 317.00 364.00
C 319.28 360.99 317.37 355.83 318.00 352.00
C 316.92 351.14 315.42 352.95 315.00 353.00 Z"/>
</g>
<g fill="#F79AA0" fill-opacity="1.00" stroke="None">
<path d="
M 328.00 359.00 
C 326.03 362.22 325.04 367.11 326.00 371.00
C 329.26 384.16 353.80 382.63 355.00 368.00 C 356.20 353.38 336.13 345.73 328.00 359.00
M 343.00 362.00 
C 345.90 363.95 343.19 373.16 338.78 370.22 C 334.36 367.28 338.21 358.79 343.00 362.00 Z"/>
</g>
<g fill="#555CF3" fill-opacity="1.00" stroke="None">
<path d="
M 209.00 353.00 
C 205.33 353.00 201.67 353.00 198.00 353.00
C 198.00 362.00 198.00 371.00 198.00 380.00
C 201.67 380.00 205.33 380.00 209.00 380.00
C 209.00 371.00 209.00 362.00 209.00 353.00 Z"/>
</g>
<g fill="#E88DB6" fill-opacity="1.00" stroke="None">
<path d="
M 317.00 364.00 
C 316.18 360.41 318.93 354.31 315.00 353.00
C 312.58 353.02 310.95 354.82 309.00 356.00
C 308.71 355.67 309.37 353.16 309.00 353.00
C 305.33 353.00 301.67 353.00 298.00 353.00
C 298.00 362.00 298.00 371.00 298.00 380.00
C 300.53 378.74 307.26 382.22 308.67 378.67 C 310.08 375.12 308.61 371.22 309.08 367.08 C 309.55 362.95 315.30 365.38 317.00 364.00 Z"/>
</g>
<g fill="#111114" fill-opacity="1.00" stroke="None">
<path d="
M 166.00 370.00 
C 179.23 373.92 178.95 351.23 166.00 355.00
C 166.00 360.00 166.00 365.00 166.00 370.00 Z"/>
</g>
<g fill="#1F1824" fill-opacity="1.00" stroke="None">
<path d="
M 277.00 362.00 
C 270.07 358.22 270.89 365.94 277.00 362.00 Z"/>
</g>
<g fill="#231B26" fill-opacity="1.00" stroke="None">
<path d="
M 343.00 362.00 
C 338.21 358.79 334.36 367.28 338.78 370.22 C 343.19 373.16 345.90 363.95 343.00 362.00 Z"/>
</g>
</svg>